<mxfile host="Electron" agent="Mozilla/5.0 (Windows NT 10.0; Win64; x64) AppleWebKit/537.36 (KHTML, like Gecko) draw.io/24.7.17 Chrome/128.0.6613.36 Electron/32.0.1 Safari/537.36" version="24.7.17">
  <diagram name="Page-1" id="Iwi3QFw-QkOdOTK_ncuG">
    <mxGraphModel dx="1793" dy="2145" grid="1" gridSize="10" guides="1" tooltips="1" connect="1" arrows="1" fold="1" page="1" pageScale="1" pageWidth="850" pageHeight="1100" math="0" shadow="0">
      <root>
        <mxCell id="0" />
        <mxCell id="1" parent="0" />
        <mxCell id="6KI_SHGeWWou5IIrmmP3-1" value="" style="shape=image;verticalLabelPosition=bottom;labelBackgroundColor=default;verticalAlign=top;aspect=fixed;imageAspect=0;image=data:image/png,iVBORw0KGgoAAAANSUhEUgAAA9AAAAGXCAIAAADUDi9CAAAgAElEQVR4Ae2dwbIUObKmWbKfgiqoWUwX51CzmNtdRY+xmdv3rngwHoPX5AnGqkU5qgiXQiHXn6lUfGbYMR2F5HJ9+kPpckTy4sef3//48/uf/uevqdBRfv7f/7e7b2TcK/SFbVyfFZ08/fpPqf2LvxcJb4X/xfkEtff06z9hG2RY+bxj79Wx/el//sreW9Fe/L1m740zLOk/wvZFMhr5aW9OxAh9XQKwdbGMqgTvKJKuHfC6WEZVgncUSdcOeF0soyrBO4qkawe8LpYhlRG2L9I5IPIzZQIiFuhbIgDbEpkh9ZYjHGLNMhZYSwRQr1QJqFf6xqFe1CslgHqlBHRrF9kZyHD/caNm2j+Rs9S0k5rHMfBK1wK84JUSkBpHveCVEpAaR706vBG23wLudBpILp4tp3i/r+/Zsa7WHrZSXdmbczVd3Wa+Ce9txpLqJBm3fMwkY1mGexJ/ZuMT9Ie9V6or9t6gPuv7KntvnU9E2xG2ZLjnTW//+PN725WSPvg5lgB4x/LcWAPvBsjYX8E7lufGGng3QMb+Ct6xPDfWwLsBMvDXCFvucH/7hpZ0HprtZ+S20GxzmdAfyxFO6JvlPx7XN9QrXTvUK31HUC/qlRJAvVICurWL7AxkuMlwT01g4MF0bypyVN1bo2ZDALwbIGN/Be9Ynhtr4N0AGfsreMfy3FgD7wbIwF8jbAm4pw43I0s7UGGrmgKvdGXBC14pAalx1AteKQGpcdSrwxthS8BNwD01Ad1rwxV5KVvwgldNQGo/8rEqdWwN4+CVriN4dXgjbLnDzR3uqQnobmKl/+1Mav9B76iNYhK56zbKh4XtcIdb+n6hXum7g3pRr5SATr2RnYEM99T53chZSnfCW8YyeKVLCV7wSglIjaNe8EoJSI2jXh3eCFsCbgLuqQnoXhvuPEjZghe8agJS+5GPValjaxgHr3QdwavDG2FLwD11uBlZWp3glrEMXulSghe8UgJS46gXvFICUuOoV4c3wpY73FPfYI7cFtLdYVrGMvcIpbfoUK/0TUG9qFdKAPVKCUjXjr1Xt3YRtmS4yXBPTUB3TuXOg5QteMGrJiC1H8ljSR1bwzh4pesIXh3eCFsC7qnDzcjS6gS3jGXwSpcSvOCVEpAaR73glRKQGke9OrwRtgTcBNxTE9C9NqRgpWzBC141Aan9yMeq1LE1jINXuo7g1eGNsP0WcKf7LsnFs+V0o6Wv79mxrtYetlJd2ZtzNV3dZr4J723GkuokGbc7l5OMZXe4J/FnNj5Bf9h7pbpi7w3qs76vsvfW+US0HWFLhnvq/K7tSkkf/BxLALxjeW6sgXcDZOyv4B3Lc2MNvBsgY38F71ieG2vg3QAZ+GuE7YunX/8Z/PPbP/87aIHuJQKwLZEZUg/eIRhLRsBbIjOkHrxDMJaMgLdEZkg9eIdgLBkBb4lMvD7Clgw3Ge6pCQw8mO5NRY6qe2vUbAiAdwNk7K/gHctzYw28GyBjfwXvWJ4ba+DdABn4a4Qtd7i/fQ93Wg/dvZ8++9wj7OPWuI725jS2t5eW9i3rkvDCqoVVRxvucEvfR/beDk2230tm721n1aFz9l7d506ELRnuqfO7tivZK0dhIAHwDoS5NwXePZOBNeAdCHNvCrx7JgNrwDsQ5t4UePdMRtVE2BJwE3BPTWDUS+Laibw5rkEqcwLgzWkML4N3ONLcIHhzGsPL4B2ONDcI3pzG2HKELQH31OFmZGnHimxJa+CVLit4wSslIDWOesErJSA1jnp1eCNsCbgJuKcmoHtt+J9ZpGzBC141Aan9yMeq1LE1jINXuo7g1eGNsCXgnjrcjCytTnDLWAavdCnBC14pAalx1AteKQGpcdSrwxthS8BNwD01Ad1rQwpWyha84FUTkNqPfKxKHVvDOHil6wheHd4IWwLuqcPNyNLqBLeMZfBKlxK84JUSkBpHveCVEpAaR706vBG2BNwE3FMT0L02pGClbMELXjUBqf3Ix6rUsTWMg1e6juDV4Y2w/R5wv377bC6eKj/9+s9T7X/8+T3tE+pDDrDt02Sjxt69/yC1f7i+jX4+qB3bmB7U/8m1kfDCtnEvPfuusfdK9c/eK9Jt0jl779n3vb19hO33gNverrMFG/5sR9ofEoDtIaJIA/BG6B32Be8hokgD8EboHfYF7yGiSAPwRugd9gXvIaLuBhG2BNxTX6iILG23nq7TEbzStQYveKUEpMZRL3ilBKTGUa8Ob4QtATcB99QEdK8Nl4ylbMELXjUBqf3Ix6rUsTWMg1e6juDV4Y2w/R5wd98F5K6bLW03w9L9Idjq2P7483vuESa8w3XLPUKpbtN6pX1ftHY38F+qvbj/7L1xhqXPNfZeKdvXb58tKGR/GL7PRNh+D7hNAWcLNvzZjrQ/JADbQ0SRBuCN0DvsC95DRJEG4I3QO+wL3kNEkQbgjdA77AveQ0TdDSJsCbinvlARWdpuPV2nI3ilaw1e8EoJSI2jXvBKCUiNo14d3ghbAm4C7qkJ6F4bLhlL2YIXvGoCUvuRj1WpY2sYB690HcGrwxth+0fAnW75dP+0u27dFuI+rGoBttKVTXe40a2IAOpFvVICIt0mn1GvdO3Ye1GvlIBOvZGdgQz31PndyFlKd8JbxjJ4pUsJXvBKCUiNo17wSglIjaNeHd4IWz/gTiePvcduvcX7je3t5EF7l2fOZ7O0h+03SGmfgJQ45N9SkqMrtae+znPDx9S7qTfU1J/iueFmeDf19qsV4JxQnOLA55pUP7l6T61L/vloHnas79p2crxGCc5DdGJsO3j6AbetUEvBhm9pTJtTBGB7CtfZxuA9S+xUe/CewnW2MXjPEjvVHryncJ1tDN6zxE61B+8pXKcaR9hyh/vZTrrpvDLVT8uyTOXVzMRO+cY9QqmuUO8pNZ5dC9R7ltip9qgX9UoJnFLjWU9Q71li7e0jbMlwc4d7agKnjp5nG0eOqmfHumB78EoXHbzglRKQGke94JUS0BmPSNcPuNPZa++xW2/xfmN7O0nQ3uWZ89ks7WH7DVLaJyAlDtzhrvMpcWusN/U2tjf10r5lXQwv3IxAC7dN43y/zR/xuWY0FO9jrl6FfXO+tL5r1+d4DQWcE4ogB2PbYccPuG2FWgo2fEtj2pwiANtTuM42Bu9ZYqfag/cUrrONwXuW2Kn24D2F62xj8J4ldqo9eE/hOtU4wpY73NzhnpqA5SHSaXLsT27BjuW5sWY5wk29dE2vMxbqla416pW+p6gX9UoJ6NQb2RnIcE99gzlyljp1aLtmY/BK1x284JUSkBpHveCVEpAaR706vBG22wx38nJ/8qjUu/F+pb178qB9Yr7hYGw39caQepdbI599lgWeEZ6bfcM2pk19gmxrlD+Ffzv/XL1wa+fWqDfbexvbo+dT73VSL7odrtukw4164TyQc+RzjQw3Ge6pCdgmrijYm6Mwjk3wSjUAXvBKCUiNo17wSgnojEeku81w56f5xvLmLNXYy80H0HdDALZSneQ5wg156bgXGQv1SlWEeqXvEepFvVICqFdKQLd2kZ3hxdOv/wz++e2f/x20QPcSAdiWyAypB+8QjCUj4C2RGVIP3iEYS0bAWyIzpB68QzCWjIC3RCZeH2G7zXCnPPz+5FGpd+P9Snv35EH7xHzDwdhu6o0h9S63Rj77HCE8Izw3+4b91dumPkG2Ncqfwr+df65euLVza9Sb7b2N7dHzqfc6qRfdDtdt0uFGvXAeyDnyucYd7qlvMNvS2l5GYSAB8A6EuTcF3j2TgTXgHQhzbwq8eyYDa8A7EObeFHj3TEbVRNhuM9z5ab6xvDlLNfZy8wH03RCArVQneY5wQ1467kXGQr1SFaFe6XuEelGvlADqlRLQrV1kZyDDTYZ7agKjTqWunchR1TVIZU4AvDmN4WXwDkeaGwRvTmN4GbzDkeYGwZvTGFuOsCXDPfX/sxg5S+lOeMtYJkcozTGgXumbgnpRr5QA6pUSkK4de69u7SJsyXBPnd+NnKXGnuqWtAZe6bKCF7xSAlLjqBe8UgJS46hXhzfC9sWPPz8XTlqt9X/G+63t/zx50P79v8nXOPzJNrU8bv8nW9rnBIrc/p0jrPGHZ2R/+Kt6H5Lzyy+f939MFV8/ftr/+fOpfL6FDLd83ODnxc34BP38U73wLO6fh59ff651vht/47lTL5xHcn769UNQ/3+uHeuyXZc/d4Zt/Z/EavVkuMlwT01Ad0798ef3kaOq1LE1jC+Adx9tv/zy2VZnH21//fjJnqoLC+BVI4rYB2+E3mFf8B4iijQAb4RevW+ELXe4ucM9NYG/nhrT2XHYz12WZZjlQnbhWvb/mgl4yLmXAu60vqWA+zarj3qlnBdQr5RPcGdGvdLVQb1BfVZWJ8KWDPfU+d3IWap+SuMpGW61BhZQbyngTuhKAbcabLK/AN7bgOobBbx93Bp7gbcRVF8z8PZxa+kVYfvi9ds/7ujkf9LJIK9J5VJ9ivfb25fsUL/n/O79Hzex9vVWaeewvIb2OY2KrnK81qXS3trkBdonGnsOCe++vtR+wno34DY/SwF3arD5OZzDRr3D7av9n9w+n2tpgUS6MvWK7Ju6rmnf8F6cg03fCnE9RD7XyHCT4Z6aQMuJs7tN5KjaPeh1Oi6A1w24bQVLAbc1kBYWwCvlEzQO3iDAenfw1vkEn4I3CLDSPcKWO9xT32CO3BZKJzl+Vghwj9D+hqRCqbvNAuotBdyJSSng7iZ2ahVQr5TzAuqV8jml1b0nqHfPZGAN6g3qs7IWEbZkuKfO70bOUpUjGo8SAfBKlbAA3lLAnbiVAm4pVTO+AF6by4QF8EoXBbzglRLQGY9Ilzvc3zLcdsXHCumEZL9a4Zb1+U2sW45rk7VzXl6Tygv4k+O1CS4wL5tLXrj9vCJ33XLPU/n2/r9+++wG3OZPKeDeO694jzbqvQsfxbw29O41r5TH2jiz8HxvzNnUe+NxbUHXHtfwXmS+Nk0r6NY38rlGhpsM99QEdOdUvqVEynYNvG7AbdxKAbc1kBYiiRapY2sYB690HcELXikBnfGIdLnDzR3uqQmkc6roJ/cILWOnIBy566bwp8NmKeBO3EoBt5SqzQL1SjkvoF4pH9Nh3yiot49bYy/UG9RnhXOELRnuqfO7kbOU7oS3jGXwSpdyAbylgDtxKwXcUqpmfAG8NpcJC+CVLgp4wSsloDMeka5zh9suwTQW9reFGjvS7JAAbA8RRRqAN0LvsO8CeN2A2ybuBtz2VF1YAK8aUcQ+eCP0DvuC9xBRpAF4I/TqfSNsyXCT4Z6agO6cusYlYymfoPFIJiA49KjubsBtxt2A256qCwvgVSOK2AdvhN5hX/AeIoo0AG+EXr1vhO23DHe675Li+rPldKOlr+/Zsa7WHrZSXdlR9Wq6us18E97bjCXSiRtw21ilgDs1sFuA1n5svd2CFdlX+z+5ffZeqa7Ye6X6X2DvlfKJaDvClgz31PndyFmqfkrjKRlutQYWUK8bcBu3UsBtDaSFBfBK+QSNgzcIsN4dvHU+wafgDQKsdI+w5Q73s6WdJixYGmBC3xZwCbzSRVwArxtwGzQ34Lan6sICeNWIIvbBG6F32Be8h4giDcAboVfvG2FLhpsM99QEKgfN+KPIUTU++vIWJsT79eOnU9jdgNssuAG3PVUXJsSrnvIt7YNXShu84JUS0BmPSJc73H/5nyZnu2/KPcJ01hStix1VRfbtoHxN+wnvVHNPAXf7urgBt2myFHC324/cU+QOt5Qze6/pXMGZvTfy7h/2nXDvPfRZqreBGo6wJcM9dX43cpbSnfCWsQxe6VJOiJcMt3TFVzI+oXrBuxIB6VxQrw5vhC13uLnDPTUBO5gqCpZlURjH5oR4v378dGpdKhnu12+f3Qz3KfuRxhPijUxntr7gla4IeMErJaAzHpEuGW4y3FMT0J1T+ZYSKds58ZLhVi/6MvYjeaxlIOgmAl4d2zn3Xul8b2k8Il0y3FPndyNnKd0JbxnL4JUu5YR4yXBLV3wl4xOqF7wrEZDOBfXq8EbYkuGeOr8bOUvd8sz3oGOBV7pwE+Ilwy1d8ZWMT6he8K5EQDoX1KvDG2FLhpsM99QEdOfU12+fI0dVqWNrGJ8QLxnuNaR1g1lMqN4bzPpmQ4BXihq8OrwRtmS4yXBPTUB3TuWim5TtnHjJcKsXfRn7kTzWMhB0EwGvju2ce690vrc0HpHui3fvPwT//OPDfwUt0L1EALYlMkPqwTsEY8nIhHi/fvxU8tatd7+lxFq631JiT61wdlDrWC9MiLfu8GM9Ba90vcALXikBnfGIdMlwT53fjZylbnnme9CxwCtduLvgffnlc2VSd8lwnx204n/+6C54cwfWLovw1vW5NtJ8diK8+RBXLoNXt/oRttzhnvoGc+S2kO4O0zKWwStdylvidVPRNjs3FW1PK4UhZs9eHK/4kz+6Jd583IuURXhffvl8EYD1aYrw1ge9zlPw6tY6wvZ7hjv9x5vpWHCqnP4LXDtPnOqb/ttn+pY4wFaqjfSfY3dovrRe1OfrZZmAG+wJpcg4+eMG3Pt1z7OPyWfXrM2xZHYzX8twb+rNTl99wtvXdz937GyYiPbevcY2415kD2Hvla77LffeNJGL6Pb12+cIWzLcZLinJqA7p/ItJVK2N8brRsY2QTcytqdW2Gcfh5glw22EH6gQyWNVprnXWKXxwo9EeBcmdmpq4D2F61TjCNvvGW47ppwtWLx/tiPtDwnA9hBRpAF4I/QO+94SrxsZm4duwG1PrZBnH1PlELOW4baBhhRuiXeIw49lRIR3r7HHwjLKWxHeUe49uh3w6lYwwpYM99T53chZ6tSh7ZqNwStd91vidSNjm50bcNtTK+yzj0PMkuE2wg9UEKl3r7EHYjLQVRHegR4+tCnw6pYvwvZ7hrv7Dp/orlu3PyvdJYKtnVMVeuAeYcKrYBu863Z23UuRcbLjBtw290pf95H5VjK74WkZ7k292emrT4mWvr4296APC9sR7b15hvvKa8feK313LAt7ZY2J5h5hS4abDPfUBHTn1BtfMpZOZE7jkUzA2Rm5kbEZcSNje1rvm5q5icm6WbNPhttQPFBBpF5XSA+EZZSrIryj3Ht0O+DVrWCE7fcMt6U6zhYs3j/bkfaHBGB7iCjSALwReod9b4nXDZrNQzcytqf1vqlZnpi0jnWzeTMrDyzcEu9Atx/FlAivK6RHYTLQTxHegR4+tCnw6pYvwpYM99T53chZSnfCW8YyeKVLeUu8btBss3MjY3ta75uauYnJulmzT4bbUDxQQaReV0iGRSQVsz9PQYR3ngne1xPw6vhH2P6R4U43Xbp/2l23bgtxH1a1AFvpyqZ7hOhWROCW6i0FzUk/pcg4Pa33tTZ7Sq5ZU2z9qVlLMZb1svrDGtTbzqqjpUi9KcNd8idd9y89Xake9UpXU6Reqc+HO94ko0fYkuEmwz01Ad05lTvcUrY3xlsKmtMc3djXpl/va80qBTcxWR/UrLl97em+UPe2cdC9WWo2BCJ5rI2p/Fcy3ImGCG+O+spl8OpWP8KWO9zvdXd94pYjt4Xioy9vAbzSJb4lXjcMtdm5Yag9rfe1ZpWCfQ9J3qY+qLV0+9rTfaHubeOge7PUbAiI1Fu/w31WDBufH+hXEd4HIiB1Fbw6vBG2ZLinzu9GzlK6E94ylsErXcpb4nXDUJudG4ba03pfa1YpuFnq+qD1p5Wx6t52m62MeM1HIvWS4U5yEuG9plb3swbvnsmomghb7nA/z3xzKHJbaOZ5TeIb9wilt+Juqd5SGJqUVgpD09N63xat1u9hu09dl1rGqnvrmpWucovPj9imW73uPWxWbaMB9l7pW9mtXqlXGw086FgRtmS4yXBPTWDUqdS1EzmqugapzAncEm8poEn+lMLQ9LTeN59RX7kj/21u70ese1uf6d4aNSUC3ep1l5tV23Duxruxw68uAfC6WIZURtj6d7jTyWN/Ccatt3i/sb2dcmjv8sz5bG4LHbbfIKV9AlLikLIsG2g5/82jkh3qXc6m3hvwKQU0yTE3DLXFdfva07ge7GJuzqHukrmdu5HKFW9fv312zebjmpH4vMy3vf306KHruz/XbLlzPu6qGR931ay7Fay91aTCI9bb5oAObTUHrmOOV2HfbOaFgf7nZq08iX1j2+EPGe6p87uRs9SQw9zaRsArXd9b4i0FNGmCbkBjc6/3tWbdBTflWXfJ3N4PWve2xezrt8+Vm8Sut3s3lq/pVq8LcMiqrcS8G+9KEHRzAe+cbLnDzR3uqQlY/iOdJsf+5B7hWJ4ba5Yj3NQr1rQU0KSxSmFoelrvq/D2x5/fuy5txtLdBq58G3SKFzee3GAFZxuxW726VVtpFdh7pavZrV6pV7O9433+RNiS4SbDPTUB3Tn1xl8ULZ3InMZvmWUpBc2JjBvdGrR6X2s2tlBxqfIoJaf3Dptv9b7WjAy3oSgV6uo9C3C/ZLmFxlUrufqI9XW8jzijqXwGr245Imy3Ge50XWZ/yqnUu/F+pb17qqB9Yr7hYGw39caQepdbI599lgWeEZ6bfWNz1y1/OpxzKaBJSigFNOlppe9wP02ZxnmfUa54++PP711vzc9K35x/KcOdUu95S/Nz4/ny9bb35jSMcwqXjYnVJ4D7enfVzPLhquX2rVeqTGNV/HHbm4fp6aH94e3zfz+Te3gvfxYbd6Pe26/vYjxz/Uc+117YObu7kOL97u7pIEL3/GIlNKDBe3H2LdjHNMYwBTQvv3zOC6axfcdUY92lha8fP21mmmpyVzdt9g6bh/teKaDfDFGZ4GYss0xhj90wbqRlK9iusf3CtQB3XbJBKbQwpM1mc0A2dUm8e/+hm9g2w70/ax7WbM5Sh+3zswLlOgHY1vkEn+4z3Kh3IIFbqrcUeSSFpGhm89NmWu8b1JiNUrJzKsOdPgv3DtsomzmmX+3pvmP65Gi8U252SnNZqd5VrwswzbqbfP27ZerMK/5MvhbsvfWVDT511Ru0Obmibja7CFvucE99gzlyWyid0vhZIQDeCpz4o1vidSMPm0IpGEoN6n3NiKiQAu7ceMTb7r71jrl7Fym76q1IpQ6w0rEScB+irps97H7HBi7eO/qz2NDg1S1ohO02w91x18eN9zvsuOeni9sxthfnYNoYy2GfZRlrf3/mvpT9yF03W/HE8JBbKfJIdkrBUHpa6Xs47lk/9+1PZbiDd7grM3URmbc34GBj5W/NHce1vTf3xwWYnCwBTPNyO5plt689TfZdPq7ZSvs78tz4zx3ulvXtXq+NervtbFYNO6/fPkc+18hwk+GemoDunMq3lEjZ6vDa/bncfzfysAalgCY1qPc1I6LC2Ay3Obk3a4/cQh2R22XtSjePVZFKHWClY3uGe6/8utmZF8jFO7PDj+UbeHXrFWG7zXDnp67G8uYs1dhrc3Kil0sAtlKd7DPc7ipIfVh4RJF63W/YKEUeae1KwVB6Wu97+9Uf4q37bdCVubiDVtovrNs0a1e9rlRSexegUXI72tN6X1uFvfJds9be7E9Yw94rXR1XvdIRJ9SYaL4RtmS4p87vRs5SuhPeMpbBK11KEd59nq/yTwnTBEsBTXrqRi1SMnXjQ7wlw12HfPjUVW9FKpFVq/c1V/fKr/hjveYsuHjndPURvQKvbtUibMlwT/3/LEbOUtc5cXbPlCyLKAeQVkSk3n2erxJwJ09KAU16WopaunUVpDrEWzLcwVVw1etKJa6x+oqbDvfKr/hjvYIcRHbYe6Xr4qpXOqJIJxP6HGFLhpsM99QEdOdU3SVjqc8PZDySCahMc5/nqwTcGzv1vK9reWPhBr+Wwq80tBtjxb2qDxq3/3AWXPVW4NcBVjpyh/vhtDG/w65653f7ITyMsCXDTYZ7agLSczNZFmn+IJIJqKz7Ps9XCbg3dup5X9fyxoKUWBqrFLqlp6XQLeinO2jQ5g1Y6Tx01evCTz64AI2A29Ge1vvaHPf6dM1ae7M/YQ17r3R1XPVKR5xQY6L5RtiS4Z46vxs5Sz3EYfG+ToJXyl+E181Du5HHfnYPkeHeu+3WjMVbivncoa9Q6UqlIrM6wEpHMtxXkNON5zh2c7ix85MPF2H74unXf757/yHy87d//nfQQmT0tfvCVrq+//jwX1L7F38vROp9+eXzftXcgGZt/mPV68aLe87Xqfn68dNeP67MEhMXoFlwO9rTel9jvle+a9bam/0Ja8aqd+aZ3sU30d57l7nMpt4IWzLcZLinJiA97EaOqlLH1jA+Fq8bWxio+lNrtlJhLF435lsJ19m5kOE+S+xU+7HqPTX0FRqDV7fKEbbfAu4ff/4edaW7OMndlvp0o6W9/Vn7V27/9OsH082VObTosIOPvTki+9na9b9fHfOaZNyEd5T/pZB6Y98unGzqMybvs/IDr8u/b8EO898NuK/8XuQBt3EoidBui6b7IdY+r/93+dnVpws/tc+0+j7r+23dW/zZ28lsDtNPZrPp/cr23qb2Z+1fvP2fe+/d1ndh/n+y7dEtGe7vijSJzFOwXWkel1byBLzS1RyLtxJb5LOwoCSvXLI8Fm8p5lsSXcuk8oDb2reI0O2YW7CyFRrh77Xd4o+NMlVhrHqnmtoMzoBXtwoRtnxLydTf0RH597Apw8fPCgH+pbxl4CqUutuMVW8ptth4vv8mh27/N5ZnszNWvW7MNzmB4Iqk+LU0xxQ3b566Ity06fgmHBf+fnZ7bbf4s7czQ81Y9c4wo6l8GLv3bhQ+1Uxv71uELRluMtxTE9CdU/kebinb4Xjd2GI/hX0WcN9mjZpIomVPoBTz7VsuU1OXipuobhGh29GguYM2wt/3bfHHhp6qMFa9U01tBmfAq1uFCFsn4E4nhr27pfoU77e3L9mhPjHMOeRLm9fntKnfc2vkk+O1LnrAZQUAACAASURBVPDs5mkMUyHhHcWzFFuMsv9wdjbqDfp/GPMF7Zs25rGT4teSP27cXBKh5fzSHW6bbF6fKi1ozsc9hJ/sWF+z3+KPNU6FfNz80Y3rTb03HtemvPa4hvci87VpWkG3vpHPNSfgNo8bC/ulbexIs0MCsD1EFGkA3gi9w75j8VZii0NPlmwwFm9LzLcYxn38mk/wbMBtfd2O9tQdtA6/ovzKIxtxzsJY9c45xzt6BV4d/Ahb7nBzh3tqAumcKvrJPULLwCkIR+667f0pxRb7lhepGateN+Y7SzLFmmd73at9in1Lo7tzcUW4sTD8Drc7qPTN3cxIMdZY9So8fGibY/feG+jhgWhH2JLhnvoGc+QspTvhLWMZvNKlHIu3FHZIpzCz8bF43YD77PTryd2z1tTt3WSzDerOpUWEbkcz6xbq8FsGdc3OXDlWvTPP9C6+gVeHPcKWgJuAe2oCutdm+L/qk7r6iMYjG9N+vkuGHftptteMxVuP+cyrjiDV+s5W6JiLSIR1+KJB77scY9V737lMODp4dYsSYUvAPXW4GVlaneCWsQxe6VKOxbtk2BHhPxZvPeYzPzuCVOs7W6FjLiIR1uGLBr3vcoxV733nMuHo4NUtSoTtt4A73dFJLp4t599ScrYv7evMYVvnE9SPvTlBO/ZuYydfr4R3FJNS2DHK/sPZsVuwOfPushvz7ZmkIHVfn8bNb1Ns2lh0u6lPHe0GZ7f/HXY65lISYdB/F77ZrAxqbW7JbchY7L3StRu7987zzg7RXsdekY8bYUuGmwz31ATs3VAUbNNXGMfmWLz1sOOCtMfiLcV8G7AWN2/q0695wL1pUO+4aXybX+suuXMRibAOXzTobSCXRhmr3tIol60Hr27pI2wJuKcONyNLqxPcMpbBK13KsXiXDDsi/MfijcR89b5pjvXoNsLhbN+6kOpzqfc964m1v8ugNvpdCmPVe5cpzDwoeHWrE2FLwE3APTUB3WvDP5qUsh2OVxTrqCHo7Ef2/b1XkZiv3jeNRcC9Z241dYBLKn+seo0khUQAvDolRNhyh/vbt1Cn5ZntrhJ3uKXrYm/ObOu+hj8J76i5lMKOUfYfzs7YO9z2+ZRfpdgzSXHzpt6NFzdtLODe1Nu4N6svCSndqa3Ppd63ey7uoHbHtzKotZHuk93zqqwpe6907cbuvZV1VGhjcpsRtmS4p87v2q5kEqQwkAB4B8LcmxqLtx527EdfvmYsXsOVB9xWaQWLm60m/Wfm+5Axb/D67bPb0drUB7VmQwp1Ie0nkvtW79vt3l0G7fZ2SEeReof4toAR8OoWMcKWgJuAe2oCutdm+J0HqauPaDyyMe3nK4p19gM9Ss1YvDbrPL60Siu4cXM9Xkx93Y5mtj6oNXMLZ/vWhVSfS72v615L5V0GbXFM10akXp3Dj2UZvLr1irAl4J463IwsrU5wy1gGr3Qpx+IVxTpSAlLjY/Gaq/X41Y2bK/FifdUqHc2fw0Ld4X33iEv1vvuxGmvqHESDNvomaiZSr8jbhzMLXt2SRdgScBNwT01A99qQ4ZayHY53ybAjsgSRfb8ybj1+XT7gNjIdHKzv2QIB91litK8TEG0O9UEv8jTCloB76nAzsrQXUX9kmuCN0Dvs24G3ElVXHh16smSDDrwtHDoCzUq8WF+1SscWV1ObusN7O3WXrH0dr3vwsL5nC3UOjQ6fHfS+7et47+vbAqODV7eIEbYE3ATcUxPQvTbDU7BSVx/ReMfG1BJbjI11HhFs8rkDb8tk6/GrC78SL9YXtNIxd9Ud1BrUHbZmVqi7ZM3qeOsumZHGQp1Do8ONY03SrI53Eicf1w3w6tYuwpaAe+pwM7K0OsEtYxm80qXswNsSW4yNdaQEpMY78Lb4U49fXfiVeLG+oJWOuavuoNag4rDbse6Sma3jdS1b37OFOodGh88Oet/2dbz39W2B0cGrW8QIWwJuAu6pCeheGzLcUrZ9eJeMLUScI/t+xaVK/Fr6dr9KvFhf0ErHNNa+u3le75uauWHx3qbbrI7X7WK+nS3U59Lo8NlB79u+jve+vi0wOnh1ixhh6wfcr948ue669e/ef3DrX799pj5h7OawWdpuO5vVxE4C8sv73zdkguu1sXZxzqbedg712KLdzhXW0fCa6obw+frxU8WOG2iW4sVXb57cBTX7pY5pRm5fm2ylr9nfeJvq62bNfv1zbWM59bJxzUhjfWUuhwePB/2czdXbze0s5+u0z/HarOHc+D4aMbe9se3g6Qfcm/Hqv9rw9WY87SAA2w5o7V3A286qo2UH3sZgqMOZ9bp04G2BQIY7UarjdQPuFrz1NnX49b6P9bSO97HmMqG34NUtSoQtAffUFyoiS6sT3DKWwStdyg68BNztK9KBt8V4PeZzA81Kgra+oJWOh5ndSt/6oPWnhqiO1+VgfbsLdfjdZifsWMc7ocOP5RJ4desVYUvATcA9NQHda9N3yVjqz2LGOzamxmBoMVB90+nA2zJQPeZzA83u2LfSMRJw2zRdbxuf1vHWLdsQZwt1+Getzdy+jndmzx/CN/DqlinC1g+4T91Nqd91c6d9yv6D3lHLJ949383SdtvJnbkyzw0H7nAnICJdmXrb7dcD7nY70nmZiu7rj+Ed68+j3OG2fWwfpNq6bMJiq0/E7OmmPj3lc22srmy9DK/UvhnfjHuR+v3mcE0O+XJb2X3f2/kY2w47fsBtnrUUbPiWxrQ5RQC2p3CdbQzes8ROte/AWw+4T42+fOMOvC1M9vFr3suC1LyykqiuL2il42GG2xyoOOx6ax3rT0V4bfSLF8ArFQB4dXgjbAm4p75QEVlaneCWsQxe6VJ24K3HZ1JvH854B96WOVbi1xQE741U4ub6glY6EnDvOa9UI1LvSogicwFvhF69b4Tti3fvPwT//OPDfwUt0L1EALYlMkPqwTsEY8lIB143PivZv3h9B944sZdfPu+NuHFzalZf0ErHd+8/1Pvu3djXuN5as/rTu+A135YvgFe6xODV4Y2w/SPDnW6idP+0u27dFuI+rGoBttKVTXe40a2IQId63RhLqgHR3G/g813U+/LL5z0xN25OBNwFNQtuR3ta79tC2PU2t2/lvbUO9Vas7e1fvOYu6r0Oc9SrW+sIW66UcKVkagL1v9wJPo383VBw6Ct0r9+Rda8uuDHWFVh1zPEu6nXX1I2b04zqC1rp2H6lpILO9dba15/eBa/5tnwBvNIlBq8Ob4QtAffU4WZkaXWCW8YyeKVLWQ9oCLiD8O+iXndNK3HzzAF3nf9d8NZdWukpeKWrCV4d3ghbAm4C7qkJ6F4bvodbyrb0D+xsUAJuQ9FXiOz7fSOW1pSAu5vnZTveRb3XoQ1e3VpH2HKH+0l31yduOXJbKD768ha4Ryi9dVq/QWvf95z7UEqI5m0oJwJ3Ua+7pqWA+9WbJ3dBbQXdjva03rdld3K9Nft1C+y9dT7Bp3dRb9DnRuXMMArq1a1ChC0Z7qnzu5GzlO6Et4xl8EqX0r1+YCOS4TYUfYW7qNddUzduTpNyg2abb6XjDe5wmxtu4S54XU+WrASvdFnBq8MbYUvATcA9NQHda8OVEinb0vUDG5SA21D0FSL7ft+IpTWtxM33Dbi7p8nmEEHX0vcu6m1xbI024NWtY4QtAffU4WZkaXWCW8YyeKVL6WZDbUQCbkPRV7iLeutr2jeR12+fXTGYNdGgZt8t3AWv68mSleCVLit4dXgjbLnDzR3uqQnobmK9fvvMPULFrcRSUjONVcqGpqf1vgpvH9fmXdQbuRVdeZdTwF1aixRwl56K6iM3NSszFXn7cCPeRb0PR6lbLahXt9YRtmS4yXBPTUB3TuVvjUVsS0FzGq4UcKen9b4ihx/UbCTR0j1lUbKZDHf3ijxox7uo90FZdbgN3g5ojV0ibL8H3OkslYY8VbZ4v6OvnULo6zKHrb0DLp+gflKWBe2NZVsPmksBd/Kh3nesn4++7mnfvzETC7jHjptnuPfrYoMG3/dTPrP3svfeUm9jx7Kg8JTmx/og1c8d5xVh+z3gNjpnCzb82Y60PyQA20NEkQbgjdAr9a0HzaWAO1mr9y2NeM36ldRLhvtqGl5JvROuHXh1ixJhyx3uqW8wW5Ylnef4OZYA9wjH8kzWSkFzeloKuFv6Krx9XJsrqTfPcO9XhDvceyaPXrOSeidcCyIHy9YPX50IWzLcU99gjpyldCe8ZSyDt2Up87/Qb2y/j7mtYyngTg32Hc+ObgMtX7iOeu+igevgvcubAl4pdvDq8EbYfg+40zkgeXmqbPF+R187hdDXZQ5be21cPkH9cIe75b3L84uN7fdxs61jKeBO67vvmAdbCg08rs207z+u/y1aSm3uogH2XntnFRpj723Xfwd/Cwo7+krXfQF/Imy/B9xG+WzBhj/bkfaHBGB7iCjSALwt9PJwp7H9Pm62jqWAOzXYdzw7ug20fOE66r2LBq6D9y5vCnil2MGrwxthyx1u7nBPTcBy2OlkPPYn9whbeKZwp6VlalMKmtPTUsDd0rfdhyu0vI56zypwyOpbhnuINek+9ogeXke9d1kd1Kt74yJsyXBzh3tqArpzKt/D3cj2bH6xFHCn4UoBd3pa79vo8EWaRRItj4XorAKHzO46eIfgOmsEvGeJnWoP3lO4TjWOsCXDPXV+N3KW0p3wlrFMlqUl+1LJL379+GlvoRQ0p5algDs9rffdj3Xlmuuot6JA3V7E3qtjy//yK2X76s0T6tURjrAlwz11fjdyljp1aLtmY/C2rHslv+h+fXIpaN6M5fa1NpVBrc3FC9dR713EcB28d3mPwCvFDl4d3ghbMtxkuKcmoDunkmVpZFvJL3ZkuBtz0i+/fG5s2TiL9ayR4ZauaSSPdVlNtq/IddTbzmRgS9SrewcjbMlwk+GemoDunMod7ka2lfyim6VuzHDXR68MWu94naeRRMtjUbqLGK6D9y5iAK8UO3h1eCNsyXBPnd+NnKV0J7xlLJNlqeRU3Lg5tb/BPWwy3Idv2XXUW/k7lkNKFYXX+7L31vkEn15Hvd0KjBBGvRF69b4RtmS4p87vRs5SuhPeMpbBm5bybKK6FHAna26kflYzd0lqnnXyvu2vo967iOE6eO8iY/BKsYNXhzfC9sWrN092Ausrp3i/r286SdC3xAG2Um388v53qf1kPPh+lbQxsD5dxd746cbNqU0p4E7zLXXc2B/o/6NwHuun5QiTWXiO5cDeO5bnRp/svdL9MOHdMB+7/0j9l2ovyCHClgw3Ge6pCejOqdzhNrYTZrjNNwolApFES8km9UYAvIZCUQCvgqrZBK+hGF6IsOUON3e4pyaQzuiin5YjFNm3HMDd7ddvwaaAe+NtKVGdz8X9lhKzwz3snNXw8nXUa4oazrBiOXJT85Z+PuhYqLeivfiaot44w5KFCFsy3FPndyNnqeEHu/UMRvC6WeFpEdVvwbpzcQPuzQTdjtYmgteMUCgRAG+JzJB68A7BWDIC3hKZIfXgHYLRNRJhyx3ub/ndOe8McY9Qui6Re4Tuved0Jpb63Hf/zDLcrm/uXNyA27IyyY513NQnDpG7bq6ffXN3fVvAvuUIF5jLhGvE3ivVVWTvZR84fF/Ye3WfxRG2ZLjJcE9NwD1ijqqMHFXryd1RHgbtuEGz2Sz928fUoN43talDiOA1JymUCIC3RGZIPXiHYCwZAW+JzJB68A7B6BqJsOUO99Q3mCO3hUo3kKg3ApYjtBrLHBzWpFizvf1dWrpBs3niBtz2tN73kM+rN0+ot4VSd5uIem2Vu0df3gLqlWoD9UrfINSrU2+ELRnuqfO7kbOUezijMicQwVtP7uaj3LHsBs3mjxtw29N6X2tWKUTwVszyKBEAr1QJ4AWvlIDUOOrV4Y2wffHL+9+Df/7+4V9BC3QvEYBticyQ+gjerx8/DfFBasQNmm1EN+C2p/W+1qxSiOCtmOVRIgBeqRLAC14pAalx1KvDG2FLhpsM99QEdOfU4Pdwk+E+XJpIJuDQOA3AK9UAeMErJSA1jnp1eCNsucPNHe6pCehuYr1++xy5R8gd7sM7iJG7btJ1P/T8IUaPqHcNAtJZoF7pW4B6Ua+UgE69kZ2BDPfU+d3IWUp3wlvGcgQvGe5DGUTwHhqnAXilGgAveKUEpMZRrw5vhO237+G2L7bsKNgXanb0pUudAGzrfIJPI3jzr6AOujGqe/qfHXNr7j1sa+De4ban9b7WrFKI4K2Y5VEiAF6pEsALXikBqXHUq8MbYUuGmwz31AR059TDO9wd/zuj1NtD43uH3aDZ7LgBtz2t97VmlUIkE1Axy6NEALxSJYAXvFICUuOoV4c3wvYv/9NkfuslnQ/ymlTe16cbLfv6Unvqc6p1bvvbQvX2uWU45zRcbnZUzVsaN/vfGfOnZmdzh9vqN/fSblmfMtzm/6s3T27QbB66Abc9rfdtmVeu3pb2LmfzJ59X3vKy9e4tWDiP0gOfa/lbNlxXG/UOt3/xfSN9tOUrOOq9wE7kc40M99T53chZSnfCW8ZyHe8+YZxPfMI73HuH3aA5n0Uq1+eyN7u34NbU8bpdqGwnAN52Vh0twdsBrb0LeNtZdbQEbwe0xi4Rttzhfkpn6zl/Wgp2Tvce3as63v2V6Hy+ojvcEbN7h92AO59FKkcG3Vuzmjpea0ahjwB4+7g19gJvI6i+ZuDt49bYC7yNoDqaRdiS4SbDPTWBxkNnX7P6UbWe2a1nhfv8ef32OWJ277AbcHf7drZjHe9Za7TfEADvBsjYX8E7lufGGng3QMb+Ct6xPHNrEbZOhju/o5OH/6X6/K5bS/uSHeoTvZxDfpbK6+GcE9hzy59WuOV4rYu13ySMrT61tKzwpn5vx2pSod7ezFqventrlm5s283FVO8G3HmXTfv8Ufu4qde+fcK7ry+1p/4U/4164TxWP3yujeW50aepd1NvrwD1Ef6GF55GIMIzNxL5XCPDPXV+N3KWys9klF0CLl43SLXu7j80tKfxAhnuOMOLWHDVe5G532Ca4JVCBi94pQR0xiPSdTLceSzfUt6fpVp60aaFAGxbKHW3cfG6AbcN4Qbc9jRe2Ge4221uUvKVbylptxlp6eKNGKRvTgC8OY3hZfAOR5obBG9OY3gZvMORmsEIWzLcZLinJqA7p5a+h9sNuM0NN+C2p/ECGe44w4tYiCRaLoIoMk3wRugd9gXvIaJIA/BG6NX7Rtg6Ge6zd6e465aOPme5tbTPz1It7e0QJr2bq5vvjf3P8drQbsBtPN2A2/rmhb712me4czt5DjuvT+Omp3l9aS5xP3MLqZyPm2oS3n19qT31iUAjh4164dzILYds7/Wm8tWbJz7XxvLc6NPUu6m3haA+wt/wwtMIRHjmRiKfa2S4p87vRs5S9VMaTx8xw73/HpJ8HfdP3YA77yIto17wSglIjaNe8EoJSI2jXh3eCFsnw53H8i3l/VmqpRdtWgjAtoVSdxsXrxuk2hDtGW7rcqqwz3Dn3fMMd16fyvun9bnsLYytcfGOHeLK1sArXX3wgldKQGoc9erwRtj6Ge70F237I4Jbn/7qbd84/ZUQ9REOm7OUyz9if7M6V7Of/nvhDQQ3SE1tXr15KgXcGyPW/my9e4fb1mWTw7b6NIo9tfrKXHLHrH1eGdeVqVdk37y9pn3De3EONn0rDNEDn2tjeW72k1y9Q9ZrY9+cv2Z9jtdQwDmhCHIwth12yHDzP01OTUB3Tn315sk9qrpBqrlRCritQakwxOw+h50Pt39aHzTvqyi7eBUDXdMmeKXrDl7wSglIjaNeHd4IWz/DbUeiloLF+y2NaXOKAGxP4Trb2MXrBqlm2Q247WmlMMSs5bDzgSqWK49yC6Kyi1c01gXNgle66OAFr5SA1Djq1eGNsCXDPXV+N3KW0p3wlrHs4nWDVJuyG3Db00ohYrbet/604pL6kYtXPeh17INXutbgBa+UgNQ46tXhjbD1M9yn7qZw183OUqe4tdwt25ylhts3z1PhavZveYfbDYuNvxvH29NS38nXy9Q7uZ/G+bH8NLwP6r+5bYWp+PO5Jl2XXL1TrXvL57KRSYUJ/c/xmrcT+mm+5YXJ/TS2HX6S4SbDPTUB3Tn1ge5wuwG3lMwQ45FMwBAH1jYCXun6ghe8UgJS46hXhzfC1s9w56eNw7LF+4ctaXCWAGzPEjvV3sXrRrdmtp6Ktmb7Qt3svr1b497hdlvOUOnincGxNXwAr3QdwQteKQGpcdSrwxthS4Z76vxu5CylO+EtY9nF60bGNmU34LanlULdbKXj4z5y8T7udGbzHLzSFQEveKUEpMZRrw5vhO0fGe50EyW/j5LXHNbbXbe8Vzpe5DWHdjae0N7+e2E7q8FzrK7SHe6c6uu3z25kbOOWAu6NetPXaeeWS2YX1rllAnIOC8/3xu9prl7T50aH1Hfrjc81qZ7zfz/D/jD8Pd2od7j9K+8zkc81MtxkuKcmoDunSu9w7//DSDfgls7u7sYjmYC7Oz+/A+CVrhF4wSslIDWOenV4I2y5w/1s5/gJC3aWmtC3BVxy8bqRsU3WzXDbUyvs/8PIulnruFLBxbvSBO87F/BK+YMXvFICUuOoV4c3wpYM99T53chZSnfCW8ayi9eNjG3KbsBtT61Ahrv0FwiGiEKQgKveoE26GwHwGgpFAbwKqmYTvIZieCHCdnuHe3+b6rBmc1vosP3m9g/tKwRgK1VLfgvWVqEUcCdPSgH3xs+zd7ht9I2dh65HvdLVdNUrHfGh1XiWDOo9S+xUe9QrfZtQ7yk1nlqLCFsy3GS4pyYw/HiaG3SPqqWAO3UsBdyHT+tmc6+WKbt4l5nd3ScCXukSgBe8UgJS46hXhzfCljvc3OGemoDuJtbrt8/uZSw3Mt67sb+l/frtsxuOp76NZvcDPW6Ni/dxpzOb5+CVrgh4wSslIDWOenV4I2zJcE+d342cpXQnvGUsu3jdyHg/5f0t7VdvntyAO/VtNLsf6HFrXLyPO53ZPAevdEXAC14pAalx1KvDG2H74t37D7+8/z3y8x8f/itoITL62n1hK13fv3/4196+GxnvFf7146d9X6upPH355fPe2pI1qNf0oFhfV73SERWzmNYm6pVqCfVKlY96deqNsCXDTYZ7agK6c2rpazTcgHvvhpvhtmaVpy+/fLZmaxcimYC1yQyZHXiHYCwZAW+JzJB68A7BWDIC3hKZeH2E7fc73OnfaaaLL6fK9m82O/ravySlr8sctnYTy+UT1M/+fzs7/J8mzZ/8Dvfet/xbSi6rbbvrtudzWSamnziThDduh7VwGbL3DtTqXmPu3hvcz911vKZN9l7dukfYkuGeOr8bOUvFT3LLW3DxDslwL4+uZYIu3paOtGkhAN4WSt1twNuNrqUjeFsodbcBbze6w44RtgO+hzv97bmdJ9Ipk59DCFiWZYg11mhDwP0u2FLAvemb57BZHZcA6t1oxqXU3cZVb7e1sb4tYA31SrWEeqXvCOrVqTfCdkCGu3Jd9fCsQIM6gchZqm6Zp9I73OAt4YXMKAJsDqNIunbA62IZVQneUSRdO+B1sQypjLAdcIfbMtz7e1rpDEd9Nwc7S8Gwm6GddPcM3XuEboZ737d+h3vfXuH/5DYjd90SwMraTT73G/jPHW6pBth7pRp2917e91HM2Xt1WoqwJcPNHe6pCQw5kpaMuEdVN+DeW+AvdvZMNjUu3k0bfu0mAN5udC0dwdtCqbsNeLvRtXQEbwulvjYRttzhfrKTUMqXTPXTsixTeTUzsVO+ufcISwH3Kcus16s3T6hXqhlXvdIRL6Vq1CvVEuqVvk2oV6feCFsy3FPndyNnqb7T26V6uXhLAfelyAyZrIt3iGWMcEVerQHUKyUMXvBKCeiMR6RLhpsM99QEdOfU12+f3SxLKeCWeiLNdtzL80gm4F4+P9C4rnofyP/JNY96pVpCvVL9o16deiNsyXCT4Z6agO6cWsoRlgJuqSdLGo9kApYEMnZS4B3Lc2MNvBsgY38F71ieG2vg3QAZ+GuELRnuqfO7kbOU7oSnsGzfdSM99288d7MspYB70/eWfj7oWNdR71204ar3Lp48qD7rrFBvnU/wKeqVvjWoN6jPyupE2JLhnjq/GzlLDTzS3cDUXb70w8VbCrhvAGGxIVy8i83xjtMBrxQ+eMErJSA1jnp1eCNsyXCT4Z6CABlu3Yn8XpYjmYB7+fxA45IjrGSh4uuIeuMMKxZQL+qVEqhoLzhuZGcgw02GewoCZLh1J/J7WY5kAu7l8wONC17pYoEXvFICUuOoV4c3wvZbwJ1OA8nFffnll892Jti3yUOlfd99e9q0M0lnqfb2j8s2z3DfbL725uTcSldK8jaUW9Yo4YVVC6uONpYj7Ohb2c9Zr8TzOnvvXfTj7r1ob9RasPfqtBRhW8twlyKPpImvHz/t/6RH/BxFwHalUQantZMf227mpIu3Lvub+bbAQC7eBeY1yRTAK10I8IJXSkBqHPXq8EbY1u5wu5FHOje8fvu8j7a/fvxkTy2DQk2EQOS2UGRcUd+XXz6XLOcZ7lKb4fWWI8wtu7JHzx0EFlNvB4FcV8PLrnqHjzLbrG/mD+qVagn1SpWMenXqjbAlwz3FDebSaSxylirZvGN9upvkOnCXDLfrTyngdt2mskJgMfVWZnqXR+CVYgcveKUEpMZRrw5vhG3tDncl8qhnuNNU0wmDcoRDOks9OsOKkNy/J7nZfC3gzteo5G3ehnLLGqWNCVYtrDraWI6wo69l1+hb0ucae++062tRS4k/9ZG1Y+/V6SfClgw3Ge5zBCxITdtBy89SCPvqzVMl4M4ti/Lf7lwq3uYuUT4kYJ+phy1p0EEAvB3Q2ruAt51VR0vwdkBr7wLedlZnW0bYcod7im+hTqex/c/IbaG9tSE1qHl6NgAAIABJREFUlXvYJfulELb+9ySHTy1LVxr3sN6dS8Xb+IiXsjChelfibxnuQ52vNOubzQX1SnWFeqVKRr069UbYkuE+l989exgKto+cpYJDl7q7WeFS41RfCmHzXm4OuzH/nds5VXbn0uLtqVEu23hC9a60FuCVriZ4wSslIDWOenV4I2wJuAm4zxFwg9S6uFtCWALuOsNHfBrZmB5xvjf2GbxS4OAFr5SA1Djq1eGNsCXgPhdu6lbRtRxZWtdgvFIUcLuOkeF2sTxK5YTqfRR0LX6Ct4VSdxvwdqNr6QjeFkrdbcDbje6wY4St9g63e0dWd7dmPcuR20IiGh1rWspwH3roBtyHvdrvxrlz6fa2fdyLtJxQvSuR5xasdDVR78Cddr9SqHfPZGAN6tWpN8JWm+HuyIYeHi8u1SBylhKB6ljTUgh76KEbcB/2am/gzqXb2/ZxL9JyQvWuRB680tUEL3ilBKTGUa8Ob4QtATdXSs4RcIPUuri7Q1gC7jrYyZ9GNqbJpzaDe+CVrgJ4wSslIDWOenV4I2zvGXC7/05Oh+kRLUeWVjTfeQLu7nC8fgCoPxVRXdLshOpdiTN4pasJXvBKCUiNo14d3gjbF6/f/pHg9O67PLmRh7V3w52NnX/fkS3a//rx06b9vz0pti/5uXC9d1voznx2956P/XGFtFu1mp10NvurWvz/NMf0afbTCSGvb/RnN9Pnf9us+flXD6/e/q/qhdtgPRRuwcJ5DOc/1QvPMTz/3Bu/8dypF84jOb97/7t9Av5JfqT9/PP0avb/3Bl6eEoy3KWAJp053Ehddxx5aMuRs5Ro4vUMt/u3FnU9tPjpmm0U0t7hRn/2HVtcpY0RmFC95tsCBfBKFxG84JUSkBpHvTq8EbYvfnn/e+mPG5dYYzfcSU+7O5pxConA3z/8azYUL798rrj09eOn/dO6Hvbt9zWu2YoCcwt7h+P+5PYplwhMqN6Sq49YD17pqoEXvFICUuOoV4c3wpYM9x9/kzXtn8hZSjSpet7XTUW7Ae4p91yzbsC9N7t3OO7PfhRq9gQmVO/eycetAa907cALXikBqXHUq8MbYesE3OlGzqs3/h1um0Yl3KkHNKWONq4NkQpXrs+XdhIOFr+6/ti9/HwR63pw7dj9s2QnD7itfUlIqUtl0Mqjzbj5LGzcvJL2RmPPJ6l3X5+6UB/kkG8O6LCiwz7O6aammbUCuu3jueFm6t3Uw9kIRDgbXrMG5whPw/jqzVPkc80JuM10PS6phDvdHW1oConA/rW5OxkLuF1P8sjYGtT1YM0qBddsRYGHx8U01oR4KxAe7hF4pUsGXvBKCUiNo17wSgnojEeke7mAux4v6hapz3JkaftGPOxVB+hGxgTch1SXbDChelfiDF7paoIXvFICUuOoV4c3wpaAe94L3PaXFzrpuJbrIXX9KQG3i/SalZGN6ZrETs0avKdwnW0M3rPETrUH7ylcZxuD9yyx9vYRtt8C7jyKsrs+jYlJN8ZKdwpzszaf0k0AGze1NLOberPTV793KbeTP83rbdAb35XMl/Zm/uQQ9vO1p64/D3GHO63m67fPOV5bYndeew60NwLGc1OT8MKzxCdYv1EvnIM8N+rlDvdYnht9mno39bYK1Ef4G154GoEIz9xI5HPNCbjNdDDgNjubQing3jfb1Az51eJF11r9qZ0B3L6Kyv1roxhlY9OFUBdDfU3rfTeju7+65OOD3gWvO8ElK8ErXVbwgldKQGoc9YJXSkBnPCLdqwTc9Ziv/rQe2OnWdaorJRFE9b4tAN2A2zrWn7rnh9Q38ubY6BRKBMBbIjOkHrxDMJaMgLdEZkg9eIdgLBkBb4lMvD7CloD7L3e43eCMgPvwSz/qiAi44y/5I1qIbEyPON8b+wxeKXDwgldKQGoc9erwRtgScBNw/4VAiq33Yq0HzTMH3Pu5WE3kzTEjFEoEwFsiM6QevEMwloyAt0RmSD14h2AsGQFviUy8PsL2xT6QMof2j0oJYOvSUqgHZ2ah+56AWcgLjXMpTXDvc25cV44sbbdXLoQ6wD2ffPnqfbv9tI75WFbZUrgL3hbH1mgDXuk6ghe8UgJS46gXvFICOuMR6dYCbvPYjcDs6dnh68GZma1HUXWXzIgVGmM+12yjwzbWwMJZtkOGdiHUAdYR1fvGfa5LpWL/Lngr/iz2CLzSBQUveKUEpMZRL3ilBHTGI9KtXSkxj90IzJ6eHb4enNWf2qAVl9zwKxLzNbpkvg0snGU7ZGiXbR1gHVG9b9xnd8VbzN4Fb4tja7QBr3QdwQteKQGpcdQLXikBnfGIdJsC7rrr3cO7cVJ36NbdsT67V2+e6pYPu0cadLONDErAHaFHXyNwF/Xa6MsXwCtdYvCCV0pAahz16vBG2H4PuH/46Z25eKr8y/vfT7V/9eYptU8B96avG91am0qu1O1oY1U6Wps0fRvL6kuWS+0H1nezjfiQAu4NBxegtakg+uGnd/W+xrnbZzu5mT+NNv/2/FsatLH9WfsXb28b08U5iDSW8MK2e9+or8td9l7RXCbc39h7pWvN3qvTfITtt4Dbtp6Ogg1/tq/FSXnHSuhW/3K67o756G65btntMqqym23EgY4Mtw3nrqk9dS3b0+5CfdCK2bvgrfiz2CPwShcUvOCVEpAaR73glRLQGY9Il4B7+6V4+3W6Y8AtilD3c8xr3EHdLHXeK5Xrsa9reW/kbE190Iq1yJtTMcujRAC8UiWAF7xSAlLjqBe8UgI64xHpEnATcG8JuGExAbfuBV7VcmRjWpXJwHmBdyDMvSnw7pkMrAHvQJh7U+DdMxlVE2H7PeDuvgsouuuWpy1bfCvloVPferxYt1+ynNav3jfY5uWXz1L77j2nFHBvxnUBbtqkf2Dq2kwc8lB+37eblUnlrE3uEXYzTx0ra/3DT+9sYzq7LrRvWZeEF1YtrDraiD7XWK+0Fuy9HZqs77fJYGrD3tvOKufWUo6w/R5w20hnCzb82Y719hZF1ZvZ03pY7MaL1rdeqFuu901P80Czpb21qXc8i8jM1gvuoI0A6y65luvOtDytD1qxIJJuZcRLPQKvdLnBC14pAalx1AteKQGd8Yh0Cbi3Fyr26zRbwN3oT3cY6obFQwLuPdshNd0zjbw5Qzxf2wh4pesLXvBKCUiNo17wSgnojEeku07A3cjXjSbrfRsD3IqRs4PWo9tGf86GofVB609t7mcHtY53KUTenLs4/FiDgle6XuAFr5SA1DjqBa+UgM54RLp/BNzpVln3T7vr1m3B9SGFbmNt9lkrBbi5tRRS5zV5uf50P9NSdJtstvjzw0/vvn78lPtwWHYHtV71p7aC+7mYBWszT026RziPP4t5ItoZFqPU/V6gXqkSUG+3MlvWBfW2UOpug3p16o2wvVyGu+PcUwpwc1P1HHb96T4r7Ea3NlyLP/bvF61XKlQsVx7lRs7OJe87WzlyVJ1tLhP6A17pooAXvFICUuOoF7xSAjrjEen6AXc6V+09dust3m9sbyePevs8DHXHbbSTj9JnpyXAzXPY+YipXApSkz/5TK39Pvy1+bb4kwLu/Xz3ZnPfUvu8JvmT28mf5vWpZZ7hTjX5z337vf1bts//pfwtx52Ng8gf25hE9m3Jrmnf8F6cg03fCkP0IPpcMydtP89rUnmI/5Pbz9V7hfnmq3yD+eZ4begbjGtj5YXFxjW2HfPyA+4c1mHZhj9searBPgw91X1g45YANw9D90PXn+5nWg+LW/zpyHCb23Vv60/NyEMURNJ9iLnfwEnwSiGDF7xSAlLjqBe8UgI64xHpcof7nWUC0nll/7MU4OYtUxia1/zw0zs3brY2rtn01O1ofrod7Wlu38r2tG7ZRrf2roXK0337mWu4RyhdHcsRSkdZRo1nKaHes8ROtUe90jcL9Z5S49m1QL1nibW3j7Alwz3mawHdvG8puk1nr1Lc/OrNU3fH/FS3T5wfWk7d3bnklpcpR46qy0DQTQS8Orav3jyBF7xSAlLjqBe8UgI64xHpfg+403kreXmqbPF+R187Vczcty8yrme405WPveXEoRRwp3XZ98pja1s7+5aSnG3J8qbNQ6xL7nNfOb/DbdwuMvcbzNc2phuMlQRwqbVLeGHb9+4fclv+c03ErfEdZO+V8mfvbdTh4T6wtxNh+z3gtk+sswUb/mzHR2lfCXDr8WvjBPNwedPFTTZX/Mm7u2ZbHHYHzS0vU15euvddKfBK+YMXvFICUuOoF7xSAjrjEenOe4c7nTxm+FkKcOs57HbPU2Tstn/55fO+vuJPJXGe7JQC7nyUFHDnNauWuUcoXVnLEUpHsQzE1UZBvdIVR73SNwv1ol4pAZ16IzsDGe7QHe5S/HrqdOWmopOFerLZ7VgKx83g3udT3q7UOHJUXYmDaC7gFYFNZsELXikBqXHUC14pAZ3xiHRf/PL+9789/xb5+fcP/wpaiIx+g75uCJvG3QevL798Pkvj68dPpVnUrX39+Gk/VsXbX97/7jpcGn35+v/4/T+Xn+NeITerWX5nuBlJV6WoV8of9bqqG8Uc9Y4i6dpBvTr1RtiS4SbD/Vl3FpzccuSoOvnUZnAPvNJVAC94pQSkxlEveKUEdMYj0uUOd+h7uN2E8dmbSWfvcJt9+x4Sqxlyhzu3tnaZe4TS9Y3cddPdwFvGMupFvVIC0jcF9UrXjr1Xp94IWzLcxxluOyq5d6bT0/pla7PgFrrNuh3dKyU2rntCsKdXK0SOqldj1TFf8HZAa+8C3nZWHS3B2wGtvQt421l1tARvB7TGLhG2ZLiPM9x2EnUzyulp5Js9yHAbYd2p1LVMlkVKPpIJcNdL6u3DjYh6pXpAvdI3AvWiXikBnXojOwMZ7qkz3PWzFBnuxiNpqVkdb6kX9Y0EwNsIqq8ZePu4NfYCbyOovmbg7ePW2Au8jaA6mkXYvvjhp3fuOaO9PsX77e3TyeMR2+cZ7o3/luHe1BvbSr2b4U7t92ep3I7rT+lKSfKkdKWkxU9rk58dc38erv5vz789tP/J+WnXJVcvnIfve26OEM6jOF/nc+0u+/ZGveh2lG6TnfTRlq/sWPtXXq/I5xoZbjLcfEvJCQ10HIgv2yWSCbgstPaJg7edVUdL8HZAa+8C3nZWHS3B2wGtsUuELXe4p77DnZ+l9qdVtyaY4XZtujnUBVpusiwLzGiqlepQ71T+T64H1CtVC+qV6h/1ol4pAZ16IzsDGe4T2U33znQ6FYm+paTjLFUKuM3P/a2SxoPdes068K4HQTcj8OrYvnrzBF7wSglIjaNe8EoJ6IxHpMsd7m8Z7pY7Se6d6XRKi9zhds95yZ/9WerQz1LAbX66Abf5cGjfWqYT5EO35w63raZiHXP1KuznOYwL2ndzhBfkYBoeq4ekXniK9vmNeuE8ljN3uMfyzPUZ+Vwjw33/DHflKNZxlioF3GmUfbQdyc1XPH+IRx14H2JekzgJXulCgBe8UgJS46gXvFICOuMR6XKH+/53uN0MTTqf5WepVHP4sxRwp1FKAXfFh8MRH7fvJsuy8EzvskYd6r2Lnw+67qhXqhbUK30vUC/qlRLQqTeyM5DhPpHh1p2ZSpY7zlKlgDsNUQq4Sw6sXd+Bd20gY2cH3rE8N9bAuwEy9lfwjuW5sQbeDZCxv4J3LM/cWoTttzvc6YZK30+7CNvXnV4VAh1s3YDbhnADbnt6tUIH3qshiswXvBF6h33Be4go0gC8EXqHfcF7iCjSALwRevW+EbZkuMlw8z3cU2sgP1s/VjmSCXismd7FW/BKsYMXvFICUuOoV4c3wpY73CfucOtuBZUsd9wWcjPcZt/NcNvTB71T1e0/9wilK96hXqk/3TqZ0yvUK10X1Ct9X1Av6pUS0Kk3sjOQ4Z46u9lxlioF3OnAVwq4dcfBmS134J15OrP5Bl7pioAXvFICUuOoF7xSAjrjEelyh/td/b7OfZ923BZyA26bhRtw29OrFTrwXg1RZL7gjdA77AveQ0SRBuCN0DvsC95DRJEG4I3Qq/eNsCXDTYabO9xTa0B3UldbjmQC1L4tYB+80kUEL3ilBKTGUa8Ob4Qtd7i5w/1HwP2gt6mCnnOPULrukbtuwZWVzmsS31CvdJVRr1TnqBf1Sgno1BvZGchwT53d7DhLuVdK7LTnXimxp1crdOC9GqLIfMEboXfYF7yHiCINwBuhd9gXvIeIIg3AG6FX7xthyx1u7nB/rt9YWvhp5DLWwlhGTQ28o0i6dsDrYhlVCd5RJF074HWxjKoE7yiSezsRtmS4yXBzh3tqDdRP2zM/jWQCZp7XJL6BV7oQ4AWvlIDUOOrV4Y2w/ZbhTvddUix/tpxutPT1PTvW1dp3sC1dKUkL5F4pueza2VH1arq6zXwT3tuMdUEN2y3YC87dbn/q5t6x9yZnbuDbAu8Ue69UJ+y9unckwpYM99TZzY6zVCngTgc+N+DWnQUnt9yBd/IZTeUeeKXLAV7wSglIjaNe8EoJ6IxHpMsdbu5wc4d7ag1Y2uzhCpbEejjPH8Jh8EqXCbzglRKQGke9OrwRtmS4yXBzh3tqDehO6mrLkUyA2rcF7INXuojgBa+UgNQ46tXhjbDlDve37+FO5yHdvZ8++x33CEtXSpID7pWSPt9mY9Xhjx1VO/omaNJ7eI++LgkvbEXryB1u6TvYsfdK/VnsPWLvlX52sPfq3pcIWzLcU2c3O85SpYA7HfjcgFt3FpzccgfeyWc0lXvglS4HeMErJSA1jnrBKyWgMx6RLne4p76/a2kAy50cFtyA23q5Abc9vVqhA+/VEEXmC94IvcO+4D1EFGkA3gi9w77gPUQUaQDeCL163whbMtxkuLnDPbUGdCd1teVIJkDt2wL2wStdRPCCV0pAahz16vBG2JLhJsPNt5RMrYH6aXvmp5FMwMzzmsQ38EoXArzglRKQGke9OrwRti9+ef978M/fP/wraIHuJQIdbN0rJWbfvVJiT69W6MB7NUSR+YI3Qu+wL3gPEUUagDdC77AveA8RRRqAN0Kv3jfClgz31NnNjrOUG3Dbac8NuO3p1QodeK+GKDJf8EboHfYF7yGiSAPwRugd9gXvIaJIA/BG6NX7Rthyh3vq+7sdt4XcgNvuM7kBtz29WqED79UQReYL3gi9w77gPUQUaQDeCL3DvuA9RBRpAN4IvXrfCFsy3GS4ucM9tQbqp+2Zn0YyATPPaxLfwCtdCPCCV0pAahz16vBG2JLhJsPNt5RMrYH6aXvmp5FMwMzzmsQ38EoXArzglRKQGke9OrwRtmS4p85udpyl3Csldtpzr5TY06sVOvBeDVFkvuCN0DvsC95DRJEG4I3QO+wL3kNEkQbgjdCr942w/Z7hTv/RaDoWnCqn/wLXzhOn+qb/fpO+JQ4dbN2A2+y7Afdl+af/HLtD88aTvpX33TIBlTaX1V6cScIbt4OGXYYde69rh73CfcfZe6XvHXuv7r2LsCXDTYabO9xTa6B+2p75aSQTMPO8JvENvNKFAC94pQSkxlGvDm+E7fcMtx1DzxYs3j/bkfaHBDrYljLcaax6hvvQn8UadOBdjIB0OuAFr5SA1DjqBa+UgNQ46tXhjbAlwz11drPjLOUG3HbacwNue3q1QgfeqyGKzBe8EXqHfcF7iCjSALwReod9wXuIKNIAvBF69b4Rtt8z3N33z7jrZmepboal+0YdbN2A2+y7AbfOfxs3DTGcT9A+9wil62KZgNnWfQ1/Et415iLVYd/+1rH3shbt68je286qQ1fsvcHYoMI8wpYMNxlu7nBPrYH6aXvmp5FMwMzzmsQ38EoXArzglRKQGke9OrwRtt8z3JYGOFuweP9sR9ofEuhgW8pwp7HqGe5DfxZr0IF3MQLS6YAXvFICUuOoF7xSAlLjqFeHN8KWDPfU2c2Os5QbcNtpzw247enVCh14r4YoMl/wRugd9gXvIaJIA/BG6B32Be8hokgD8Ebo1ftG2P6R4U63Vbp/2l23bgtxH1a1EGH79eOnyoq8/PLHTZJVuTXOK90jhIOIQES9jSso8vwhRke90tVHvdK3APWiXikBnXojOwMZ7tUy3HY4SwG3/boppIB7U3m1XyNH1aux6pgveDugtXcBbzurjpbg7YDW3gW87aw6WoK3A1pjlwhb/w53OnnsL8G49RbvN7a3kwftXZ45n81tocP2OVLLcOeVqfzDT+9efvns1u8rc382T0/5M6Gd/F/K51N79HlN4r+pdxJ/bInX8MfwLjYvm44V7rJefK5J+efqvcv6Tvh5NJBDjle6jmZ8bZ75NI1tx3qR4V42w10/rpHh/uGnd5Gjah0vT8Gr1gDqlRIGL3ilBKTGUa8Ob4Qtd7invsdsWZZ0lhr4kzvcr948cY9woKIsw2E2derdj3XBGtRrSlOsPupVUDWbqBf1SgmY0oaPEtkZyHCT4Z6agO6cSgpWyha84FUTkNqP5LGkjq1hHLzSdQSvDm+ELXe4n+wklF/TSeV0Nrpjvd0WGu4Pd7gtw33H9d0MfXe9jfXH1LvYvIzSfedleCfxx9ywwn35mBtWOOWP5bGsuxVO2Zn588VmlAq3nFeu3luOm0954XFzvDblhedrc8wLovka2w77ZLinzu9GzlL1Ex53uEnB1hUSf6pTb9y3BSyAV7qI4AWvlIDUOOrV4Y2w5Q73Re9wW94lndKu+ZN7hNJ1txyhdJTLKhn1SnWFeqVvFupFvVICOvVGdgYy3BfNcOvOfw9kOXJUfaBp3stV8ErJgxe8UgJS46gXvFICOuMR6ZLhJsM9NQHdOdXucD/oOVtKZgiTSCZg/tnd3UNyhENUWlpH1FsiM6Qe9aJeKYEhKnU9jOwMZLjJcE9NQHdO5Q63lC14wasmILUfyWNJHVvDOHil6wheHd4IWzLcU+d3I2cp3QlvGctkWdwT/Kj1Rb2jSLp2UC/qlRJwVTdqRNQ7iqRrh71Xp94IWzLcU+d3I2cp3QlvGcvglS4leMErJSA1jnrBKyUgNY56dXgjbMlwk+GemoDunModbinbH356F8kEqH1bwD45Qje3N2plUe8okq4d1It6pQRc1Q0ZMbIzkOEmwz01Ad05lUvGUrbgBa+agNR+JI8ldWwN4+CVriN4dXgjbL8F3PvTQHK3pT7F++3tk03at3DYn6Xg1sKtRbcpww3PgTwTTMsi5OqF83DObo4QzqM487mW76LDdbVR73D7tguN0sNj2UlBYb6Cj+X/zHqIfK6R4Z46vxs5SyXJ8rNCALwVOPFH4I0zrFgAbwVO/BF44wwrFsBbgRN/BN44w5KFCNsXv7z//W/Pv0V+/v3Dv4IWIqOv3Re20vX9j9//U2r/4u8F6pWqC/VK3y/Ui3qlBFCvlIBu7SI7AxluMtxTEyidMofUR46qQxxY2wh4pesLXvBKCUiNo17wSgnojEekyx3ub9/RkZZntjtP+W0h7mDlqzNkvezNyS3DOacR4ZyrN2JnlD+L2dncgkW3Y9eXO9xjeW70uVEv+8OGT/AOevpoy1dwrP0rr1fkc40M99T5XYsIk775OZYAeMfy3FgD7wbI2F/BO5bnxhp4N0DG/gresTw31sC7ATLw1whbvod76m+hzs9S+9MqNUECmyxL0NomJ4E11CvVAOqVvnGoF/VKCaBeKQHd2kV2BjLcZLinJjDwYLo3FTmq7q1RsyEA3g2Qsb+CdyzPjTXwboCM/RW8Y3lurIF3A2TgrxG2TsCdTgZ7/0r1Kd5vb1+yQ31imHPIlzavz2lTv+fWyCfHa13g2c3TGKZCwgvPUTw3djbqhfOGT/rVfp7lw+faWJ4b/qbeTX33emEnXy/DC08jkPPZVFquvaU+8rnmBNz7Ies1+6Wtt+dpOwHYtrPqaAneDmjtXcDbzqqjJXg7oLV3AW87q46W4O2A1t4FvO2szraMsOUON3e4pyaQ8hain9yCtZO9gnDkrpvCn8Vsol7UKyUgfV9Qr3Tt2Ht16o2wJcM99Q3myFnq7Lntgu3BK1108IJXSkBqHPWCV0pAahz16vBG2BJwE3BPTUD32vzw07vImyN1bA3j4JWuI3jBKyUgNY56wSsloDMekS4B99ThZmRpdYJbxjJ4pUsJXvBKCUiNo17wSglIjaNeHd4IW+5wT32DOXJbSHeHaRnL3CPkHqGUgPRNQb3StWPvRb1SAqhXSkC3dpGdgQw3Ge6pCejOqVwpkbIFL3jVBKT2I3ksqWNrGAevdB3Bq8MbYUvAPXW4GVlaneCWsQxe6VKCF7xSAlLjqBe8UgJS46hXhzfCloCbgHtqArrXhhSslC14wasmILUf+ViVOraGcfBK1xG8OrwRtt8C7nTfJbl4tpxutPT1PTvW1drDVqore3OupqvbzDfhvc1YUp0k43bjcJKx7A73JP7MxifoD3uvVFfsvUF91vdV9t46n4i2I2zJcE+d37VdKemDn2MJgHcsz4018G6AjP0VvGN5bqyBdwNk7K/gHctzYw28GyADf42wJeAm4J6awMD3ZG8q8ubsrVGzIQDeDZCxv4J3LM+NNfBugIz9FbxjeW6sgXcDZOCvEbYE3FOHm5GlHaiwVU2BV7qy4AWvlIDUOOoFr5SA1Djq1eGNsOUO97fv4U7Lo7v302efe4R93BrX0d6cxvb2DtO+ZV0SXli1sOpowx1u6fvI3tuhyfZ7yey97aw6dM7eq/vcibAlw02Ge2oCttcoCrbpK4xjE7xSDYAXvFICUuOoF7xSAjrjEekScE8dbkaWVie4ZSyDV7qU4AWvlIDUOOoFr5SA1Djq1eGNsCXgJuCemoDuteGLoqVswQteNQGp/cjHqtSxNYyDV7qO4NXhjbAl4J463IwsrU5wy1gGr3QpwQteKQGpcdQLXikBqXHUq8MbYUvATcA9NQHda0MKVsoWvOBVE5Daj3ysSh1bwzh4pesIXh3eCFvVHcofAAAGHklEQVQC7qnDzcjS6gS3jGXwSpcSvOCVEpAaR73glRKQGke9OrwRtgTcBNxTE9C9NqRgpWzBC141Aan9yMeq1LE1jINXuo7g1eGNsCXgnjrcjCytTnDLWAavdCnBC14pAalx1AteKQGpcdSrwxth+z3g/h8//mIunir/7fm3U+1/+Okd7RPqQw6w7dNko8b+19M/pPYP17fRzwe1YxvTg/o/uTYSXtg27qVn3zX2Xqn+2XtFuk06Z+89+763t4+w/R5w29t1tmDDn+1I+0MCsD1EFGkA3gi9w77gPUQUaQDeCL3DvuA9RBRpAN4IvcO+4D1E1N0gwpaAmyslUxPofitaOkbenBb7F28DXqkAwAteKQGpcdQLXikBnfGIdAm4pw43I0urE9wylsErXUrwgldKQGoc9YJXSkBqHPXq8EbYvvjb82/pz/96+kdf+T9+/8/uvn97/o2+Ff6w7dNko67+z2//T2r/4tr+j9//s6LtxjW6OMOKPhNe+Ig0xt5b0V6cOXtvnGHl3Wfv1X2+RNiS4SbDPTUB3TmV762TsgUveNUEpPYjeSypY2sYB690HcGrwxthS8A9dbgZWVqd4JaxDF7pUoIXvFICUuOoF7xSAlLjqFeHN8KWgJuAe2oCuteGFKyULXjBqyYgtR/5WJU6toZx8ErXEbw6vBG2fwTc6Ztcu3/a95V2W4j7sKoF2EpXNn0XLLoVEUC9qFdKQKTb5DPqla4dey/qlRLQqTeyM5Dhnjq/GzlL6U54y1gGr3QpwQteKQGpcdQLXikBqXHUq8MbYUvATcA9NQHda8OdBylb8IJXTUBqP/KxKnVsDePgla4jeHV4I2wJuKcONyNLqxPcMpbBK11K8IJXSkBqHPWCV0pAahz16vBG2HKH+xfdXZ+45chtofjoy1vgHqH0Fh3qlb5BqBf1SgmgXikB6dqx9+rWLsKWDDcZ7qkJ6M6p3HmQsgUveNUEpPYjeSypY2sYB690HcGrwxthS8A9dbgZWVqd4JaxDF7pUoIXvFICUuOoF7xSAlLjqFeHN8KWgJuAe2oCuteGFKyULXjBqyYgtR/5WJU6toZx8ErXEbw6vBG23OHmDvfUBHQ3sX746R23YLlHKCWAeqUEpGsXuan5uLO+mefsvahXSkCn5MjOQIZ76vxu5CylO+EtYxm80qUEL3ilBKTGUS94pQSkxlGvDm+E7feAO502kpenyhbvd/S1Uwh9XeawtdfG5RPUT8qyoD0F2//x4y+2MYnsS7Uxv88J7/x+Puj7xd4rfb/Ye6XvBXtvMDao7KsRtt8Dbnu7zhZs+LMdaX9IALaHiCINwBuhd9gXvIeIIg3AG6F32Be8h4giDcAboXfYF7yHiLobRNhyh3vqG8yWZUnnLX6OJcA9wrE8N9ZQr2VZNmSG1KNeBVWziXqHqNR4bqyh3hKZIfWod6O3IVSTzQhbMtzc4Z6aQPcxtKVj5KjaYv/ibcArFQB4wSslIDWOesErJaAzHpHu94A7nQCSl6fKFu939LVTCH1d5rC118blE9QP9wil751tTIq1w2bCCweRhtl72XuDny93fDfZe3VrF2H7PeC2t+tswYY/25H2hwRge4go0gC8EXqHfcF7iCjSALwReod9wXuIKNIAvBF6h33Be4iou0GELXe4ucM9NQE7p6Zswdif3CMcy3NjzXKEm3rpml5nLNQrXWvUK31PUS/qlRLQqTeyM5DhnvoGc+Qs1X2Au05H8ErXGrzglRKQGke94JUSkBpHvTq8EbZkuKfO70bOUroT3jKWybJIcwyoV/qmoF7UKyWAeqUEpGvH3qtbuwhbMtxkuKcmoDun/vDTu8hRVerYGsbBK11H8IJXSkBqHPWCV0pAZzwiXTLcZLinJqA7p/7w0ztyhGRZpARQr5SAdO0ieazHnfXNPGfvRb1SAjolR3YGMtxT53cjZyndCW8Zy+CVLiV4wSslIDWOesErJSA1jnp1eCNsyXBPnd+NnKV0J7xlLJNlkeYYUK/0TUG9qFdKAPVKCUjXjr1Xt3YRtmS4yXBPTUB3TuUOt5QteMGrJiC1H8ljSR1bwzh4pesIXh3eCNv/D9ay1/MJS8DZAAAAAElFTkSuQmCC;" vertex="1" parent="1">
          <mxGeometry x="40" y="40" width="1156" height="482.06" as="geometry" />
        </mxCell>
        <mxCell id="6KI_SHGeWWou5IIrmmP3-2" value="Marcador" style="shape=callout;whiteSpace=wrap;html=1;perimeter=calloutPerimeter;" vertex="1" parent="1">
          <mxGeometry x="420" y="160" width="90" height="60" as="geometry" />
        </mxCell>
        <mxCell id="6KI_SHGeWWou5IIrmmP3-3" style="edgeStyle=orthogonalEdgeStyle;rounded=0;orthogonalLoop=1;jettySize=auto;html=1;exitX=0.5;exitY=0;exitDx=0;exitDy=0;entryX=0;entryY=0.5;entryDx=0;entryDy=0;strokeWidth=4;fillColor=#d5e8d4;strokeColor=#82b366;" edge="1" parent="1" source="6KI_SHGeWWou5IIrmmP3-4" target="6KI_SHGeWWou5IIrmmP3-5">
          <mxGeometry relative="1" as="geometry" />
        </mxCell>
        <mxCell id="6KI_SHGeWWou5IIrmmP3-4" value="" style="shape=image;verticalLabelPosition=bottom;labelBackgroundColor=default;verticalAlign=top;aspect=fixed;imageAspect=0;image=data:image/png,iVBORw0KGgoAAAANSUhEUgAAAVYAAAHPCAYAAAAIxvIIAAAAAXNSR0IArs4c6QAAAARnQU1BAACxjwv8YQUAAAAJcEhZcwAADsMAAA7DAcdvqGQAAEsFSURBVHhe7Z15YBT13f/fs7mzuYDcCZfcp9xBEFEExQMRtfaySqvWq9be1trLo9r2+T3tU1ue1qqtYNWn1dqq2AqIEg8KSkgIhxKIJBBCDo7c124yvz++M5OZ2d1kk0ySndn3S4fPvr+f3SUbdt772c985zuSLMsyCCGEWIbLPEAIIWRg0FgJIcRiaKyEEGIxNFZCCLEYGishhFgMjZUQQiyGxkoIIRZDYyWEEIuhsRJCiMXQWAkhxGKkUDylNQR/JEKIg5EkyTw0IIbdWPV//TD/KISQMEdvsAMx22E1VlmWDZs6RgghQ41qpJIkaZt+vC8Mi7Gqf2VXV5dmqhEREXC52PK1gr2nT5mHSBgxLzXLPESCQPWirq4uQDFU1ZP6aq7D5mRdXV2asUZFRdFUCSHDimqkqhepHoV+fJMecjfTfyp0dXUhKirKfBdCCBk2VHNVPUo1174wpMaqN9XOzk5WqYSQkMTlciEiIgKdnZ0+x4GCYcidTTVWr9eLiIgIc5oQQkICl8sFr9ertSz7wpAbK5TeBStWQkgo43K50NnZaZ9WgP7Im9XU1NTi1tvvRWrmBKRnT8JtX70XlZVVWv5cXR2+9d0HkZ49CamZE7D6qhuwf/9Bw3MAQEtLCx780SNYvuIqnKg4aU4HZOd/dmPpRZfjtxv+GPBTzuPx4pvf+QHu+fp3zKmwZsPBD5H3ylOGbf07/0STpwMA0NHViScP7cHFr/4ZF/zjaVy/5a9491Q5ZPj/Pe+trcSaN19A0Znuf/+e+KDqOK7b8lf878GPAj5nR1cnfrB7O763a6s55Uiam1twzbovIDVzgs92zbovoLm5Rbtvb/uMLMt4c8tbWL7iKlRX15jTPpSWHsPqq25AauYEZI2eggd/9AgaG5u0fENDI+762reRnj1J29dramoNzzFQ1GrVFq2AwTLW5uYW3H3vd/Dq6/8ClF/KP1/7F77x7QfQ1tYGAGhqasb7H+zS/v49BYX46l3fRG3tae15GhoacdMtd2DTX/6K22+7BWmpo7RcT7y++U1ce/1NGD06F1dcvtLvFI3Ozk5s+P1TeO4vfzWnSC/8+ZNCPHu4CK2dXnTJMiqaG/Dwnh34+Fz3v53Kpw3n8FBBPpo6hCn3xuvlJbh/1zakxcZjVe4ESPD9t+uSu/DHQ3vwTuUxcyosuWbNarjd8UAQ+0z58RNYf+vduOmWO1Bf32DI+aOysgo33XIH9hQUAkox8uRTz+LRx/4fZFmG1+vFj3/6GF56+Z/aASaxr/9A29etQG+sfWHIjFX/g/XnBw2G+Pg4XHnFKjz4wLdRUXYQRQXvYeKE81BSclT7xxydm4MPd27H6apSHPmkAIvzFqDiZCUqT4mqRpZl/OK//gflx09g+9Z/4qYv3IjY2FjT3+TLJ4eP4Lvf/zG+862v4blnn8TEieeZ7wJZlvG/f3gGjz72/8wpouOhhZdg93W3Y/d1t+PZS65FQlQ0AOCCzNFYkjEGf7/8s3jv2q9gZc55aPR04HhTveHxx5vq8c2db6Kqpbu66YmPz9Xid/t3Y934afjtsisxKXmk+S6QIeMPhwrw/JH96BqE926o4nbH47V/vIDTVaU4XVWKUycOY+2aKzF1yiRce81VQBD7THNzC+6973688a+tfosNf6SlpeLqqy7Hb379c1SfLMFbW/6J5OQkfPxJCVpaWlFxshJb33oHM2ZMw96P8nHsyD6svPRivPf+f3C45Kj56fqN2auC9a0hM9ahQJIkfGX9TfjmfXcjNjYWCW43EhLcmDp1MlJSks1315g+bQrGjxsLACjefxCb/vJXnDhxEkuWXY4JU+bi6T9tQmdnp/lhGl6vF3948k84ffoM/vvXG5A1egrWXvcFHD9RYbjf5je24InfPqn9fOHK93Zt7fGr9MMF+dpX/eKz1dr47JEZ+O8llyHXnYRoVwSSYmKRFB2D8xJHaPdp6GjHT/fswJiEZMwelaGNB8Lb1YlNh/ehwdOOfx77GMtf/TO+/M4/cbzRaNaby4/gH8c+xrXjpyEuItKQCycKCgqxZdvbuO0rNyNVqUqD2WfOP38m3nzjZVyweJHu2QITFRWJBx/4Nr74+c8gIiICKSnJiImJwYzpU+B2x6O+vgGNjU2YOWMqxozORWJiApZcsAitra2oqup+zwwXjjJWM9veegcHDh7CnV/9MmJiYgy5J373JCZNnY/Dh4/ioZ88gKSkREAxv9bWVq1VUF/fgO//4CG89vq/DY/Xo356QvmqDwAf7NyN2++4Dw0NjQCAvYX78ORTf8Ybr/8VV191edCf3OFIZ1eX9lX/kT35ONvear4LPm04hx0nj+HCrLGYlCIqzI6uTvxX0fs4f1QG/nvJ5RgR0/uHV0VzIwpPn0KXLKND+XsPnavF93e/hYaOdkDp1f6t9AA2XHgVLh89IWz/7dra2vDEhj9idG4OrrryMm28t33G7Y7HIz/9AaZNnaI9pi/IsowX/+9leL1e3HLzFwAAcXGxiI2JwUd7CnHsWDlaWlrwyeEj5ocOG4411r2F+/D9Bx/CTV/8LC5cutic1jhXV4c77voGysqPAwAqT52CJEn4/e/+G1UVh/HUk0/A5XLhtc3/htfrNT8cUN5IjY1NWJy3AJ8c+BBHPinAhUsXY1/xfhz6+DBKjhzF7Xfeh12792DJsstx6WVr0drair/+7R9hcwCrqqUJV//reeS98hTyK8uRX1mOvFeewiWvPasdXEqLdeOacVOwY+2X8foVX8TklFE43dbi81W/oaMdj+59F7ERkbht2jxIkNDR1Ynf7t+Nt04ewwtH9mPZP/+E/MpytHg9+OYHbwY8gFXX0Yb2rk5MThmF16/4Iv591U2YPjIdJ5rqcfBcDUrqzuAnBTtQUncGX3r7FdyR/zpavB7kV5b3WHU7kV279+Ct7Ttw61duQlpaqjben32mL2x+Ywt+89s/4Bv33ompUyYBAMaPG4eLli3Bp5+WYeEFKzDmvFn420v/QHRUFEaO9G3lDDWONNYTFSdx5z3fQlZmBr7/3W8gMtL3q9vXv3YHjn+6H1+97RacrDyF/PwPtFxsbCwmT56IyMhILFm8ENlZmThz5hza23s+EDJ27Gikpo7CiJQUrLjkIni9naivr8ebW7ajvPyE+e5hRWZ8AjZf+UXsvu52LM8ei+XZY7H7utvxzjXrMWdUJgDgxgkz8OC8ixAXEYn0uHjMHeV7zntHVyd+Xvg+SupO477Zi5ETL75pnG1rxTsnj/W7/5kVn4D0uHiMjInDgrQsdHR1or6jHdtOlqKmpdl897DD6/Xi+RdfQkZGGlatvMSc7vc+0xt7C/fhG99+ACsuWY6vfPkmbTwqKhKP/+zHWLvmSkB3Lv+CBfMwfVr/KmMrcZyxNje34Jvf/gEqTpzE//vFI1ofyB9RUdE+n27ZWVloa2tDSclReL1e7Nz1ESpPVWHUqBGIiREHUcwkJychMTEB5eUncPr0GZyrq8Pb77yLyMgIJCcn4+tfu0Nr/p+uKsX2ra8iLi4On71xHTY8wQNZ/jjeWI//1JxApMuF+Iju057//Ekh3qk8hrXjp2F5tuiLw2Tc6rY8eyziI6Pw66WrNfM2kxIdixhXBE61NKGmtQVn21uxp/YUol0RSI6OwT0zFhme88nlaxAfGYXl2WPxy8XdX4edzsFDn+DNLdtx5erLMGZ0riHXn30mGCorq3DPvd9FbGwsfvbwD32OS6Snp+GZp36L2lNH8eMffg+RkRH41jfu1mYqDCeOMlZZlvGnZ/+CHfnvo8PjwdXXfk6bc6d+5d5buA8TpszV5sb9/Je/xsiRI5CXtwAAcM3Vq5GUlIi7vvZtZOZOwe13fB0A8NnPrENkZCQOHPwYk6cvwPIVV2nzY3NzsnHlFauwa/ceTJ25CJOmzsf7H+zChUsvwKyZ03U/IQGAXy6+zMeUZMj43YHd2vzVz2z7G4431mNi0kiMThQHHvfWVuKl0oPokmW8XHoQi195GnmvPIWr//V8UDMAmjwd+Gr+67jo1T/hzRPiyHGuOxEL07NRUncGa/79PK544y84dLYGk1NSMWtk7we/woXNb2xBp9eLG65f69Nj7m2f6Q1/+5TH48V//eoJHDlaiurqGiy8YIW2Lz/xuye1x1ZWVmH9rXfj4Ud/iR8/+D0sv2ip7pmHD0cZa01NLZ7503PmYQPJSUmGJvqC+XPx979u1Ho3s2bNwHPP/kHTyclJ+MVjP8Xll12qPcZMZGQkHv7JA7jzq19GVJR4Iy1dkocnfv2LkPj0tAuzR2Ui150ElyQhyuXCBRmj8dMFl2hH4f+v9AAalZMFrCLSFYHvz12Gq8ZMRkxEBFyShOkj0vDwoku0aV7hTm3taWx+Y0vAr9n92Wd649DHn+Dlv79mHvahYG8Rior2449/+A3uuvNWH9MfLoZsPVZ1PlhnZyc6OjrQ2tqK1NTuBjixDq7HGt5wPVbrOH36NOLi4hAdHY2IiAjDAtg94aiKlRBCQgEaKyGEWAyNlRBCLIbGSgghFkNjJYQQi6GxEkKIxdhuutWWrTsAAJdfdrFhvGjfQew/8DG+9MUbDOMqdXUNePe9XbhmTffE9L+9/DoWLZiDceNGG+7bH8rKTuDPm/6Gjo4OREdH48s336g9b9G+g/jrS2JOXm5OFm798ucRG9u9KIz5NdXVNeD3T25Eg7Ko72c/cw3mnD9Du39v2HW61YaDH2LT4X0AgGkj0vC7C69EQlQ0qlqacNuOV1HbJhZVfmjhJVg9eqLPYwHgnhn+V0/SP7dKWmw8nr54LQBoz68/U+t7u7Yiv7JcO8uqqqUJzx0pxnfPX2J4nlCjL9OtAr039e9Bf+9ZPVu27sCOd/+j6b6+X/0RKvtTWEy3eu75lw3/gCpbtu7QftGBqKurx9HSY6irE+uytrW1o7b2DOqCWHQ3GA6XlGLd2tV4/NEHsG7tarzx7+1oa2tHXV0D3n7nfdxx2034yQ+/BQDI170Gf6/p9Te2Ijc3C48/+gA++5lr8O8339Z+bqfS5OlAeWMdXl39eey+7nakx8VjY0kRAKDoTBWuGDtJO6X0mU/2Gs60+t6urT6maUZ/aur2Nbdg2og0XDF2EjLjE/Cr4p3a898wYTr+p3gX/lN9AvGRUdh93e1Ii0vQTPVLk2abn9q29PTe3PpWPj7/2Wt9xs0U7TuIvYX7cf937sHjjz6AO267Cf96822UlfW8NsaWrTvw3PMvm4c17L4/2cZYt2zdgVkzp2H6NHF2h0rRPnFZlYsvusAwbqauvgG1p8+iTFkMpaqqBjW1Z1Bdbc2lHC6/7GLtUzAlOQnt7e1oa2vH7g/3Ii1tFMaNG43Y2BgsXbIQR0vL0NbWHvA16UlJThrQ+dZ2ISEqGr9cfBky4xMAAGMTU1DeWAcAWD16olaJZsaJfFWrMNYNBz/EipzzDOsG9MbRhrNo9nbg+vHTUXSmCsca63D9eHHq8fXjp6PZ24GKZrHco0rRmSpkxLq1n88J9PTevPGGNdr4xAnjUKO7woZKW1s7Ptj5Ea5YvQIpKUkAgHHjRmP+3Fl474Pd5rv3CbvvT7YxVv0vWs+c82f4tAX8UV1di/POG4uSI58CyifivLkzUa+sl1pWdgI/efi/8cAPH8cDP3xc+zph/mQtKzuBX/3Pkz1+4h0uKUVMTAxiY2P8viFVAr2mZUvzcLS0HE/96QW88e/tmDF9ivbGdQpVLU343q6t2vWs9DR5OvBRTSXGJqaYUyg6U4VWj0cz2HtmLPJpC/TGC0eKMT4xBZnxohJt9XjMd8Gk5JFo8XqQ98pTONZwDsVnqnHdedPMd7M1Pb03Vdra2nG0tAyzZvq+9qqqGrS3t2PcWGMrLSMjDQ0NTWhrE2a44ffPGvarsrIT2LmrAIc+PmLY1wJhx/3JNsY6UGpqT2PWzKmIiYlGW1s76hsaMXZMrvZJOG7caDz0429rX2cKCvejrOwE8hbNQ23tGe2rzeGSUqSljQr4D1NX14C9hfuxdMlCre+Trlu7Esr1gdraxCLKPfHpp+WoOHkKGRlp5pSjeb/qOE63NmtVpEqTpwP/d/SA9hW+P1S1NOFYYx2+oPtKnxrnNqwL0OrxoKqlCb9cfBl2X3c7rhk3BbNHZThy7YCe3pt1dQ349W/+iKVLFvo1rECoFWZ9fSOe+fOLmDhhHB5/9AE8/ugDiI2NRWZmOpYsno/p0ybh8Ucf6LEwsuv+FBbGWlfXgNraM8hMT0N7ewc+OXxU+6Rta+9AVZW4YuRzz7+MB374OJ58+i/aOpIpKUmYMX0KDpeUoq2tHccrKrFsaZ7pb+hG7eeob8T0tFSfT9mkpMSABwLa2trxxr+3Y8ni+X3qWdkFdcHrtW++iPzKclz6+kbDlVirWprwu/278bVZeT7mqfZcb5k8xzDeF/5+7BDckdGYmCSWi8yMT0Czt8NQOcdFRWl/d1VLE/afrUFpw1mfq8band7emykpSXjg/nux/8DHAfuhbe0dqKszLkReV9+AmJgY1Nc3oL6hEVMmT9Byyy9aHPC97w+77k9hYqziHz4lJRmTJ52Hjwr2YczoXKSkJCE2Jhp19Q3YsnUHGhqa8JMffgv3f+ceJCd179R5i+ahpva01p/NzEzXcnqK9h3E0dJyH+NVvxZBaUkkJSX0+EZob2/X3oyZmelITkq07CDbcKOum/rq6s9jefZYbF9zi+GCgb8q3onUODcuzBxjeFzRmSq8XHoIn5s4s9+Vo9piMD9Hi8ej9WzVqLYatp4oxQUZOWj2eLB9zS1YkT0eRxvOao+1O8G8N5ctzRMHek3tr0DvTfV5oqO719HtD3ben8LDWJVP0NjYGIwbOxqNDY0YOyYHUD4Bq6trUVN7GhMnjENsbAzKyk+g9vRZ7ZefkpKEmJgYvPfBhxiTm+33H7GurgH/fvNtLFk83zB9a8rkCahvaERVVU2P/SqV2NgYxMTE4HBJKaD0seobGpGS7L/14CTePHEUH9VU4huzFxuMr8nTgf8p3oWF6dlB91OLzlThktee1dZdhe6glX7R64lJI5EW58YHVeLSPB9UHTf0XxOiojDHz5UMnECg92ZbWzuee/5lzUj1PU49scrBI/1R9qJ9B7FzVwGWLc3za2L57+7STFFvkGbsvj9F/PSnP/2peXAwUeeyer1exMf3fa3S4v2H4HbHY+KEcYbx0tIyNLe04PzZvgtL7ys+BG+nF/PnzUZsbAxqa89iypSJiI2NQWlpGWpqT2PZ0jy8/sZb2LotH7LchbS0UaipOa09n8fjRXHxIVy79gqfNxiUKR+Hj3yKsvIKbH/7fWx/+310ejuxYP75aGlpxd//8S/kv/sf5OZm4fJVxp6S/jVFRkYiPW2U9rMU7C3GurWrMXVqcIYCAKeCWPR5uEmIisaq3AmIjogAFPP8ZdEHONXSiM3lJXj647144ch+zEnNxKFztXip9CDKG+vx9Md78fTHe3Gk/gxW5XZ/xdxWUYqUmFgsShcfmFWtTdhy4iguzBqDicrlrP9+7BAkAOvGd++I0RERGJeUgl/v+w9+f/AjVDY34vG8VQCAnxe9hxsnzMTI2DgUnanCt3duQZO3AzdNmq393KFIlnK5mt5ISUn2+96MjIzE2DG5+P2TG/GvN9/G2bN1+Mr6zyMhwW1+CmRmpqOlpRXPv/gKtr/9Po4cPabNOY2MjMTkSefhxb/+E/96821sf/t95OZkYeqUiUgdNRIf7PwQW9/Kx+HDpZg9a5phUexQ2Z9aWloQFRWFiIgIuFyuoOex2u4EgeFiy9YdqKk9HfAEhFDCricIEGvoywkCpGfC4gSB4aCurgGP/+K3OFpahs9cv8acJoQQH1ixOhBWrOENK1brYMVKCCEhAo2VEEIsZtiMVZIktLf7n2pBCCHDTXt7e1Bf+/0xZMaq/oBqj0KSJLS0iGXgCCEk1FCNVd9XDdZoh8xYYTJXl8sFj8eD1tZW890IIWRY8Xq9aG5u1uauog+miqE2VuhMVT3Cdu7cOZw5c8Z8N0IIGRZaW1tRWVmJiIgIw4kBfWHIplvBNOXK4/Ggo6MDbW1tWq81JiYGEbozWobwR+uV2tpapKUN/qo4VlDTzm8B4Ux6TJx5KCQJlX1KX5G2t7fD6/UiJkacChsTE6OdeaVvCfTGkBorFLPs6uqC1+uF1+tFR0cHOjo64PF40NnZia6uLs2AQ4kDBw5g5syZ5mFCSD8JpX1K/SYdGRmJyMhIREdHIzo6GlFRUYiMjOxz1Tosxqqaq7pmgLrpjTXUKC4uxuzZzrksByHDTSjtU/oWZUREhGaofV0jQGXIjRUmc1U3c7U6DD9WjxQVFWHOnP6vA0oIMRIq+5RqmKqB6nur/TFVDJexQmeugbZQo7CwEHPnzjUPE0L6SajtU6qB6s20P6aK4TRW6A5OmaM5Hwrs3bsX8+bNMw8TQvpJqOxTeuNUb5tjXxlWY9UTIj9GQAoKCjB//nzzMCGkn4TyPtVfQ1UJGWMNdUL5TUCIHXHyPjXkJwgQQojTobESQojF0FgJIcRiaKyEEGIxNFZCCLEYGishhFgMjZUQQiyGxkoIIRZDYyWEEIuhsRJCiMXQWAkhxGJorIQQYjE0VkIIsRgaKyGEWAyNlRBCLIbGSgghFkNjJYQQi6GxEkKIxdBYCSHEYmishBBiMTRWQgixGBorIYRYDI2VEEIshsZKCCEWQ2MlhBCLobESQojF0FgJIcRiaKyEEGIxNFZCCLEYGishhFgMjZUQQiyGxkoIIRZDYyWEEIuhsRJCiMXQWAkhxGJorIQQYjE0VkIIsRgaKyGEWAyNlRBCLIbGSgghFkNjJYQQi6GxEkKIxdBYCSHEYmishBBiMTRWQgixGBorIYRYDI2VEEIshsZKCCEWQ2MlhBCLobESQojF0FgJIcRiaKyEEGIxNFZCCLEYGishhFgMjZUQQiyGxkoIIRZDYyWEEIuhsRJCiMXQWAkhxGJorIQQYjE0VkIIsRgaKyFkWJg/f755yDHQWAkhxGJorISQIeP5gx5c/VILJv6hCRP/0ISrX2rB8wc95rvZHhorIWRIeP6gBz96tx2HTnehSwa6ZODQ6S786N12x5krjZUQMiS80IN59pSzIzRWQsigsbFkn3b7kzNdhpyennJ2hMZKCLGcssY6RP3xYdy241VtTDbcw0hPOTtCYyWEWEpZYx0mvfiEpovPVAMApqVG6O5lRM3JDnFYGishxDLyK8sMppoa50Z5Ux0A4PPTInX3NKLmTjcAHq85az9orIQQS8ivLMPKzZsMY3dPX4D2zk40ejpw08woPHxRDKaO6radqaNcePiiGNw0MwodXqDyLFBWbX9zlWTZKcX34FJQUODoM0UIGSgTX3wC5Y2iOk2Nc+Ou6QswfUQaACAhKhpLM8cgMSoa0H3llyQRZRloaZfx6SkJXbKMmCgJY9KB+BjlyW0GK1ZCyIC5dcerBlP93dIrMH1EGhTfRLOnA1tOHMXBszWo72iDJAlT7ZJFddrWAbgkCeMzgKhICW0eoLwa8HYa/hrbQGMlhAyIRwrysUk3rerirLGAJAlTNcVP6s/grYpP8fdjH+O/XnsJ7R2Ap1OUrzJkREQA4zJkxESK8Rrh1baDxkoI6TcbS/bh4YJ8TU8fmY4bJswwmKkUwGRF2QpI4g8RIWLGCKCzU0J9M9DUqj29baCxEkL6zSN6Ux2Rhh/PuwiQZciyrEV1M49reciQZVGxqv/FRstISZTR5hEHsxpbDH9tyENjJYT0i7LGOq2vCgA/WXAxXJIESZLgklwBYndeVK7qf6JS1f+XmSJhVCLg6QSO1wKdNjo5i8ZKCOkXt+W/pt3+zHnTAd0ZVLJyyzca82qd2n3LqNOSZcTHyOjqAs41Kg+xATRWQkifeaQgH/mVZZpenj0OALRZAMFGtU7tvmXUgISRiRI6ZeBMo31mCdBYCSF9oqyxznDA6jPnTUdarFvpmYpJqUHHIP5zx8qIipDR7gHKaww/SshCYyWE9InndFOrZoxMx2cmzITLJUGSXH2PSt+1t21MmgRZBlragIrThh8nJKGxEkL6hL5avWv6AtENFSVonyO0P0XsHjXGqEhgdJo4kFXXBLSH+PKtNFZCSNDop1elxbmREZfg0yftixZj3VHdzOOAOL012S3O1jrXpAyGKDRWQkjQ6KvVS7LGAWJuvxLVif7Ba32VKuay9qyT3WLaVX1zaE+/orESQoLCXK1+ZuIMIXRm2SdtqlKVE7F61AmxQHQk0OEBTp5RniQEobESQnrFPBPgkqxxhnJSPcpv1L3kdXfR3+5N56SKaVf1zWILRWishJBeMc8E+OykmeIMKpdyJpXhaL95PEBe67gK9NVpTzo2CsgeKcw1VKtWGishpFf0FwW88bzpPkf3+x2hK2T7EJMShMF2dobmOgI0VkJIj+jXBEiLc2PGyPQejvLrx4PJ63qpfYzJCUAXgLoQbAfQWAkhPaJvA6THuQFlJSotQpwhJZqhuvHe8kIpt7pvB6uT4gGvV/RZ20JsXiuNlRASEPNBq5kj0iG5lNWq1KisVuUz3lteXa9VeW71drA60gWMSgI6ZaCitvuAWChAYyWEBERfrabFuXHjhBmi4pRlQFtXdQBa6Zn2N6anAJES0NIOVIfQ1QZorIQQv5ir1RsnzOxOStofQpp0sHlJyfU3uiQx/aqzCzjTEDonDdBYCSF+MVerl+aME1/fJWGJkgRNw6SDyUMy9k39VaTB5GOiAXcs0NUVOjMEaKyEEL/knyrXbl+aPV6rMK2O2uanIg02nxQneq0NNFZCSKhS1lhnWMj6xokzRE9U640qcaDaUIGq2hx7zyfEA12dMhpagNYOw0sZFmishBAf9NeySotza0fz1c0ybahAVW2OvecjXcDIJHGlgZMhsF4rjZUQ4sO7pjaAejRf3azS/ivS/um0ZBkREtDaDlSdM7ycIYfGSgjxQd9fnTEyXTkAJapDS6PfirR/OsIlIVdZoOVMgzjddbigsRJCDJj7qzNHpkFWSkNZ3LBQ6ytPkTfqvuVjosQ1srq6gIZWw8saUmishJCApMe5IalnSblcym2rtG4KFkTpKambpvueT4qX0CUP79QrGishxIB+/uqK7PGiiQlZaWYqmyXa2CuFvhIdgE6IExVrYyvQNkwzBGishBAN89lWs0alAxK0Cf2S0tC0TBt6pdbEyAgJIxLFWViVZw0vb8igsRJCNMwrWc0cmRFgWr8VUak2ZVmsf6Xe9rf1MZ+aJCrj5jZxIGuoobESQgA/1ernJs4y5AcDSeuZSjD0UEXztN/5yAgJWSMldHYBNcOwOAuNlRAC+KlWL80ZZ8iLjqiVGt2VJkSFaaVOiJMRFSnD2zX0p7rSWAkhgFKxqqzMOU9co0qpAEW0Wovocg1eHBEvQR6GGQI0VkIIAGCT4YKBaaICVI7iD17EoG7uOHEQq7FtaE8YoLESQgzVanqcG7NGZQqhnSI1OFFplQoZIA4kH6ssKejxAFVD2GulsRJCDKewZsQliHIPYm7oYEatuoRowcqyEnV6oPnMEeI013ONQHOb+OsHGxorIQTv6k5hnTUyXeuBqttgaEhSd8Vpql6t1DFR4hIunV1A5RnDyx40aKyEhDlljXWG/uqKnPFKxdddXQ6W1irOQd5GJQEuF9DmEatfDTY0VkLCHP00q1mjMpARnyCEJPqggxm1ClOC3x6plfnEeNEeqB+CGQI0VkLCGPNJAV+YMFN8jVbOj+reBkfrq0pDj1QXrconxorLtwzF1CsaKyFhjPGkgATMSs0UtidBiYoNKlotBa3LG6vKwdwS4kRs9wz+4iw0VkLCGONJAd0rWckBovV5Y1U52FtSHNA1BO0AGishYYz+oNXsURmGI/dDs+kKWShxEHWyWxhrQ7PQgwWNlZAwxXhSQAJmjcwQQlYGhyDK+kIWg6/jY4AIScwOOF0vxgYDGishYYr+SqyAqOzUqLRAB11Lus2szZtV+exRYk5rdR3Q4VV+JouhsRISpuivxLpK7a8qm3ouf7dWyj+L8/q7qZVloM2qvDsWSIwDvF3AqUFaCJvGSkgYYp5mtXL0BN31qPxtkp8xK/LdlSQQIA5CPmskIClTr9o9YsxKaKyEhCHmaVYZcW5R0g3xpq8kgQBxEPIuCUhyCz0Ya7XSWAkJQzbqjHVV7nhluj5EeQcMmZb89EADbVbnk93ihIH6QZghQGMlJMwoa6zTDlylxyXgpknnA4rZCf/pNr/B1rIMyLoerF6bo9X5uGgZURFAa7uMWotnCNBYCQkz9G2Ay3LPEzeE1w15lCQhhivmjAK8XRJq6qw9G4vGSkiYoV97VcxdlUXLcxiiPMwxNhpITZLR2QVUnIZl0FgJCTPydWuvnp+aaTpqP3QRELMCxBi0SlIyVZaDnU9PkRDhAlo7gBaLlhSksRISRujPtsqISwAgi0PjwxEhK/1OfSWpXmlVp4cgnxQPdHXJlh3IorESEkbo+6uzR6UDkCD6ncMQIapJGCrI4dHJbkCGhPpmcVbWQKGxEhJG6KdZZcYlQLGZYYvdlaMa1UrWPD64+ehIwB0jw+MFTtSK389AoLESEibop1kBwE2Tz4ficGKD7vYQacmn5ylst1sPXT5rpIQuAI2tQM0Ar+hKYyUkTNC3Ab40aTYA5ei8LKJs0kOR7+55qpXk8OnICBnZI2R4vUBtPdDZqf26+gyNlZAwwGdtgNwJpjJSVG56bY6DkVev3upyKXGYdbJbgjsO6Ooa2GLYNFZCwgB9tZoRn4Ast9JfVY4lDVeUlZ9JVm6Egk5RFsM+26gk+wGNlZAwQD/N6jK1WpWgRGnYtCSJnymUYmI8ICnzWqv72WulsRISBhguwTIyvbvPKcu6bei1rFaKIRRdEpA1QvRYa+vEway+QmMlxOHoq1UAmJOaBUnpKQ5vVIpYfcUYIjrZDYxMEnNaT54WrYG+QGMlxOHop1hlxCeIG6pRDHPUZAjqjBQgOgrwdIoFsfsCjZUQh6O/BMvluRMMueHGX48zlOLIRGGydU1CBwuNlRCHo59mlRGvnm0lUG9rhqLbhiLvr8cZSjEpXsSGVuBcH8yVxkqIg3nEZKqXj56oOZ2kOp64IcxOUhqfQ5VX0N0MKe2SgNzU7l5rc5vpjgGgsRLiYPRrA1yeO0GUYrJSkmnRdHh+KPMKupshp92xyiyBLrGOQDAHsmishDgU89oAN6trA0CpHP3Goc373D1E9YhEICYa8HiDu/ggjZUQh6I/2+qWyecDYrkRMd0JUDRMemjzavGnFbQhrEcoZ2SdaVAGe4DGSohD0V+CJT0+UavCVIZbQz+P1TflN6qYx4cin+QWr6GlrfelBWmshDgU/SVYVo829VcRIA5xXrmlRRXzeCjkXRIwNl1UrXXNwKmzugeYoLES4kAMl2CJT1DOdnKJM55cyrWn/MWhzis/o11iXDQwOk2c7nqmAWj3KAkTNFZCHIi+DZAZnyCqQ1kcnQ+lKCpCJZq1OYZI3h0rY0Rizytg0VgJcSDv6toAc0ZmAMqBpNCLuttaE9Y3hlpeXVqwrsn/lV1prIQ4jLLGOsNqVqvHTIIkCXuQJOUofYhoFbUy1KvuGHr52GhgRIKMDi9QXgO0mVoCNFZCHIZ5UetMdeGVbh8LGW2sDVWrNcfQzGeOkJAYJ+a2llcbTxygsRLiMPRrA6yfPAeQZUCG0tv0jcOZVytBGeJ+dtM5qUBUpIwOj3EtARorIQ7CvDbA6jETRb2lfvX2E4c1D5EXd7OnTk0SV3c90wB4lQsQ0lgJcShXjJ4ISdn/QzUKuitBO+qkeBkxUUBbh2gJdHbRWAlxFPppVnNGZUKxMGWDSZu3oc+LUfvHsWlAVKSYIXC8hsZKiGMoa6wznG11/qhMUV3JshJh0uY49HkZstK7tHd0uWSMSZUBSUZTG42VEMegX8kqMz4BLuX6UqEcAUnpCdg/RkZKSEuSIMs0VkIcg/4SLFeMngiIwlDblEIx4DYceUnxJUkCJNhfj0wCIiJorIQ4BsMlWNyJ4oakDCg7vl6b43DkDVK9j831qEQaKyGOQD/NKjM+AVcql2AxGEAIRhlKNeugmOKmsRLiCPSXYLli9CTAcORaCkmtod50SHS5aKyE2B79JVgy4xPw5SlzTGWUHMJah4M0jZUQm6NfG+CK0ZOUysnP9+4QjBIEhpQDNI2VEJujPylgbqo4KcCww4ew1opYh0UaKyE2R39SwNzULJ2JqTYW2lo34JhIYyXExugvwaItDyjqJnFWkB20cdgRkcZKiI3R91evHDMJkiRBksQ1pVxKDFmtlni6tqtTNI2VEBujPykAMgBZORffDlH7mZViT7ntBE1jJcSmGE8KSMRXps7VVU9KB1MSp1sadIjlxQ3dbQdoGishNkV/UsBVYyYqZiUWOJGAbq0eJgq1vIrsvEhjJcSGbCzZpzspIBFfmTbPaFZqZWgHrVWxztE0VkJsyHHdbIArlZWsZFkGoPYwbaChVHkyIFLKoAM0jZUQG6I/aDUvLVscZXe5IEkuJfrXUL+K67T5/vq8/vFiC6zN9+9Na1WetimlnwM0jZUQm6GfuwoA81IzAX9H3ZWobrIsQ1IfpNfm++vy+sf7jOseqx83x0B5DfWmUu0ZtDnaJE9jJcRm6E9hzYxP1KolCf5jSOcBkVejupnHbZansRJiM/QnBVw1ZqIo/rR5oX5iSOfFbadFGishNsJ8wcCrxk6GS1J6ojaLkq6adVqksRJiI27Lf027fevUuciKVy7BAihH3UXRpNehmjdUeg7TNFZCbIK/alWPJEkimnSo5g2VnsM0jZUQm6Dvrd42dR6y4hO7TcymUVR5YjPPIjBvdsrTWAmxCfpTWOelKeuuSgGOttsoqpvouQbe7JSnsRJiA/TXtQKAealZolfpc5TdflFs+tv21zRWQmyAfu5qVnwiJJ+j7C6fo+59i709fqB5/7G74jNWr3bXNFZCbIB+bYCrxkwCgO6j7KL002lzFI/zHe/L4wea9zcuzvxy4kZjJcQG6NcGmJ+WBQCQJEmJYrxbm2MI5yV0b9DdtrmmsRIS4ujXBsiKT8Tc1CxAVio/n6genTaPh25e26C7bXNNYyUkxNFPs8p2J4prR7mkANEVYDw084aKz0EbjZWQEKassc64RGBqpri6qSxDVvqadtZqhacMOUbTWAkJYfTValZ8Im6fNh+SovVFkl21XjhJ01gJCVHM1eqP5y9XDvyI6UpOiJCVF+ewSGMlJETRV6vz07KxID0bgP4ouwOifoNzNI2VkBBFX63ePnWe6E8qG2Qo0ajtl1eqPOWmUzSNlZAQxDDFyp2IBek5cEniiLpLUq4hJSnXkNJpO+UldVYARJUnKdEJmsZKSAhiaAOkZgHimLqjIqCWeYp0UKSxEhJimA9arRk7GYCyGpSDohbUzUGaxkpIiLFy8ybt9vy0bMxLzVZ6lWqfEo7QkEWFJ7RS7DlE01gJCSEeKcjXlgfMcifij8vXiNWgXBJckgSXEp2gJUk0JiWIKs9JkcZKSAihXx5wzZjJSiUkyiGnRkBUek6KNFZCQgTzNa3umL4AAPx0Jx0UxU3HRRorISHCI7oDVgvSxMkA6o6qTqp3nPZTwToh0lgJCQE2luzDJt0Uq6vHTYFoQUqKCYnoNA1lTIsi4ztuszyNlZBhpqyxDrfteFXTa8ZOxjVjJmtHz50dlRcta38YtU3zNFZChhnDClbuRDy8cIV2FF1yiSPpBm2Ots2LihVQo6j8nKBprIQMI+aTAR5acAlkiGpOi0p15zNu+zxE5apUfiI6Q9NYCRlGzNXqwrRsSEq3zvkROiVuOUXTWAkZJjaW7DNUq9eMmQxAhizLYRLVVy5uyEp0gqaxEjIMmA9YLUjPwV0zF4rVoFzKqlA+UQowbtO8mCYAwHhU3aBtmqexEjIM3Jb/mnY7y52Ipy5aI/qOsqjo/G8Oy0Pfo1QiAozbLE9jJWSIya8sM5xh9fRF1yhzPHVbmGgoPUmnRRorIUNIfmWZYfWqu6YvQE5CktgpJUlZmETZSZ2uIUGRkIR0jKaxEjJElDXWGUw1252INeOmQlJ0uEUDkmnc5prGSsgQYTbVhxdcguz4BD+9yPDYuo+miz8Mx9htrmmshAwBKzdv0tZZBYA3r/oSFqXnwOUSR8ldLnGUPJy0aAd0V3pOijRWQgYR9eu//mDVXdMXKEeRIaI4XA4Z6K7mwiUPU+XnkEhjJWQQuS3/NZOpLsRdMxYCUne9JgGaVg/rhE8ejow0VkIGgfzKMkx88QmDqT6z/BrcOWMBRMEmi6jOftTrcMkrvxcnRhorIRazsWSfT0/17hkLsSgjV+kzihWetKhu5nGn5yVR4/mr+OweaayEWIQ6R1V/qioAPLxwBe6asbC7apNFbSOLEs6gwy6vQ1XmqGIeD+U8jZUQC1i5eZPPQaqF6TnYf+PdWDd+KgBAktQJ8aK2EZPljTrs8jpUZY4q5vFQztNYCekn+ZVluHXHqz69VABYO24K/nTxWsMY8Y9W6Sk3fKIN85JsrseJXwoKCjB//nzzMAkzNpbsw/HGOuSfKvcxUyhV6qMLVyDHnaTb5aDUMdR6fbCoCNcsu1Q35hxorEFCYw1PNpbsw7uKgeafKjcckDLzp+VrsTAjB1BtRFZuUPvVBwr3Ye1Fl0IddlSksQYHjdX5bFRW83+3sqxXE1W5dtxULMjIwbpxoo9Kgudg0T6suXCFedgR0FiDhMbqPMoa6/BIQX7QJqqydtwULEzPxcK0bN1Xfp+ahbGXqLYCZBmQJECWZUiS5AxNYw0OGqsz6KuZLkzPQU58IhZk5GBRajZyEpLM/sDYz3iwcB/WLGPFGtbQWO3NrTteDcpM1a/2eWnZyHYnaeOqH1Bbpw8orQBZzauVn+7+hminPI01OGis9qQ3Q7123FQszMjForRs5LgTlV1ERd1lqAdDHygqYo813KGx2otHCvINV0DVc+24qbh2/FQsTBNH8AFlf9fvCdSDrg8W7sPVy1YAWm9Sa1baX9NYg4PGah/MZ0Cp/CzvUh69DyHUVoATcZVUACdPA3VN5hQh9uLWHa8i6o8PG0x1UXoOfpa3Eoc++zXFVCXdBuph1xCVnsOiq90DnG0EKk4DJRU0WGJPVm7ehE3KPFSVRek52LhiHa4bNxWSBLEWqDh9nTpENABIkvOi1NzWJdc1AacbxMuUJCA6EhiRCKQlgyiwFRCa+OulLkrPwdrxU/m1P8Q5ULQPV194CSALM5JlWbhud6tSp22W93hF/erxAs1tQH0z0NJOgzVDYw09bt3xqk+V+ljeSlw3Xv3Kr3vnM4ZcPFBUhKuWXmL493MKLkCGLMuIigSS3TLGZsgYlSQjwgW0eWRUnxM9WI/X/FBChgd13VO9qea4k7DxknVYN34qZBndK9UrUbzPfceZH968GJcBqD1KZ2gXIJl6BBLSUyRMygHSkiXIMnC2CThWBdTWg5BhRTVV8wGq7WtuQV5GDiSIb1vmfp54n3dr5kMjL8YlAND8xwlaawVAAiBuCRTt8QJ1zcJUJchIjJeQlgy4Y3X3DQOsaAWoi3wc9zNZ/aKssRibmIJxiSnmFFFQTVXP12YuwtdmLtK9gRntEg2tAHVYxeZa8nYqxtoLHi9QVgV4ugCXBKSnhFfvtT/Gqi4519OZP/5Ynj0OP5p3EY1Wh7lKzXEn4ed5l2JReq42pu62gWA+tPIHiopw1YXO7LFK3k5xioCkHOXqKXZ4gPoWoKYOcLmAEW5hsFGR5qd1HsEaa35lGTaV7PM5qNJflmePw9PLrwlrgzWbKgBsWrEOi9J1Z06ZSwbqkNcHiopw9YWX+PiMI2KwFasejxc4clL8rmLCZOZAb8aaX1mGW/Nf67EyXZSeixx3InLdieYUdtdU4mRzA042N5hTAICbJ5+PH81fHlYGW9ZYh9vyXzOY6rrx0/DzvJWG+xF74uiKVeux9hF979UlARkjnG2uJSUlmDx5snkYG0v24bmSfT4VFRQjzUvPxqL0HMNX1p74sKYCH9acDGi04VLBljXWYdKLTxjGaKrO4kBREa506HSrflWseuqagMozogSOjgRyUsPnwJa/r6gAcN34aVg3firy0nO7vwFp3xFUbY6++YqmBjzw4Xbsrq4wPP/YxBT8aP5yLM8a61iDnfjiE4bq/zrVVH1+b4F/f8yHdv5AYRGudGrF2pcea6B4rhE4XQ94OmXEREmOMtfKxi6UN8gAgLFJErITxYVtHyrIx6OmM37WjZ+Gr81chFzdOp5W8GFNBX574CN8WGM0WAA48vmvO8pczUf+/R2kIs5AbQWY/cQRcaAVq4rWGqgDYqKc0Xf95vZ2vFriMYytnRyFX18aAwCY8n+/xacN55CXkYuf56203FDN7K6uwP273/JpDzx98VpHVK8bS/bhth2vGsb+suI65GXQVJ3I/qIiXLn0YvOwI+h3j9Uf3X1XGS5JQnQkMD7TnrMGHtvZjqf3GU1V5bbzo/CDJTH4w6E9KKk7jXtn5uk+qsxfgQJ/Fepv/u+ffozfHfjQx2DtXL0GqlTzMnJ9Xn9vvx/m7ZE/UFiEK9hjDR79nNcYm/Zdlz7XjFNN/n81WQkSPviSG81eD2pbm7Vx9X00FLqiuQE3bX/Fx1ztWL2ae9U57iTsuGZ9j6+f2v7ayRWrS5bFBwmUaIWOjADGZQCRLqDdK9YasNPpsJ0yApoqIHKdMuCOjDKM6980g61zFfP5y4rrlCuFCm7b8SpWbt6Esh6mfYUS/kz1L5deB/Ty+qntrwH//uEE7ZIkUaVDiVbpqCjRBkhLBto9QHWdfcw1QgJiI/29DQSxkRIilLQkqcstDk9cnDkaz19qNNfyxjqs3LxJO4U2FClTfka9qV43fhry134Zo91JPq+T0alRbOjFT+ymLe2xBsLjBY5U2mu+682vt+L9ik7zMADgwtwIbFoTh7ZOL6paQmdl8L8f+xi/3b/b0B4IxXmv5n4qFFP9xeJVhjHibPYXFeGKJQ5tBRhcdpC26CggZ5QokavPhe6VCjxeoKFF3L5zXrQ5raHmGj0d4lNX2aC7PRz6+vHT8Mu8lYbq1d9qUMOJWqnquW78NPxSMdWeXh+1A7Ufv3DEplaskmgTaAyGPtck2gFeZb5rKE3Jam4DyqqBLhnITQVGJACfnOnCK4c9OFonXsnEFAnXTYnC1FEuNHk7cKa1RfwWZfUFyyGjv7drK3bXnAyp6tV8imqOOwm/XLxKdyJF4NdD7Ty9v7AQq5WKVYIYVrG9HoxZAT1hXIZQnK2VngKkJJjvOTR4vGJRmbpmoKsLiI8V1XVMlHgP+KPJ04Gz7a3m4ZDjif278PKnHxvMdWxiCp5Zfg2WZ48z3Hew8bfa/wuXXs85qmHM/sIirF663DzsCJSKVftIGbJYWy+hrkmGtxPDVr3W1gtT7VKO5KUly0hL7v45JUlcL1wCcLruLGLcbrR4PWjvtM/lFCqaG/DE/t3DWr36a0U8z4n/Yc/+oiKlYvX1B7tHY8XqmxdxkPIeD1DXIs7WklxAdMTQnLGlGqqsGqq6tqz559b9/Ft2vouZc86HBAkyZEMExFccWTaOh1L+N/t34+VPD/lUr7dMPh9fmnz+oBisvyp1cUYuvj4zD4szRvfp52feefniwkJjxWre73rxj1DOaxWr+oL9P3Jw83VNMuqbpUG9iKHagjjXCHR4haFGRogKNSWh558PkLFl57uYNXeO+WltRUVzA54o3oVdpuoVFp9YEGjFr/tm5eHrsxYbxkj4sr+wCJcvWd6rP9gxP+Q91p7QztjqNFaw8TH9P3NLNdSaOvFrkLuAqAggu49ng2354F3Mmnu+eViH+osOROjkd1VX4Lu7tvmYKwbYIvB3rj+0KnUxFmfoF6Y2E/zP7x/m7ZbfX1iEy8Onx6qlFG2Og5vvvgy3qGABWaliJbhjhRlGRQY2RfXxnk79133x/JERMlIS1ErY/9/fjXF86873FGM131/SPcY8Htr5XdUnejTY5Vlje7wWl3oCgr/qVOWFS2/AYq2Xav65ev75mHd2fn9hIS5TKtbucRV/z2OfvKhY/eVDINY1As3tQItilJBEWpJE1akSHSUuG+NR5vOrHxWQxf1SEsQWFeH/7wkmbv3Pu5g5Zw78zR5RCTS7JNTzvynehZeOHcLJJl+D1TNWMdeerpIAADkJSfjGrMXIS8/F6ITuObWB/n7mwzNfvLcIly+9SPcA58SQ6LEGk69vktDcJsPTKaG5XdzfH5ERgDtGRlSUhPgYGe7Y4J6/t3zPFasz4q7qE3jiwG7sMi2sHSzXj5+GvMzRuGH8NL/Pz8ioj/qKtbf9z275kOqx9gWPbsZTh1cc8BrM5Qm37nwXs+boDl75//06Ir+rugIVLQ042dSAl44dAmT4bRcszshFjjsJizNyccN504N+fub9jIdhfv/eIly29CLdoHOQPN4u/cslAdj2n/eEsZrfKGEUK5RWQa47yW+ekbEvcf/eIqxassy8qzkCl5gALykT4RkDRUC8GaQwjrkJSaJnGiDPyNjnGGB/s3sUF3CSIGAMHGWxyYyMjJZFn/3MIVHq7ArdWQGhFLcqrQD9UU4tr0rTUVCr873p3h7PfM/53vRgPz7c8sV7i3DZ0mXd93NQFFcQgHjRjD1HQIYsqxsgm/Rg53vTvT2e+Z7zvenBfnx45uGznzkhivVYIT5JGHuIACC6KEqkpqYesDbvZw6JrFiDjJDEL42RkdG6aN7PnBJZsQYbta37M5eRkXGA0byfOSXa9QSBoWbbzvcw2+arWxESShQXOnkeK7qdFupt6sCakZHRuqhuDtMuGd29Aai3qX00tF+eaLgzMjIOPAba3+yu2WMNNgIAjP0hamrqgWg/+5lDImcFBBshhDY3DzI1NfWANOCznzkkBu6xqp8ozENSSnvJJcEluRgZGS2Jwe9/dssH7rEqD2RezYuPIkZGRgtj0PufvfLssfYhgpqaetC0k6Kpxyorkdqsge6jmVAiNTX1wHSg/c3u2iVBIKLuaB21QaujxnFGRsaBRzhOu0Q1JlxWeK5em2P45gEZMB3dZGRkHGjU72dmbY72yUud6imtku5e/gjz/Nu7P8DsuXO1u+mjinmceeaZD5wvKizEpXlLRVJNBMJmeWVWgNobEI7rN4Z9XvmE9RPVzTzOPPPM95IPev8LMB6ieaXHau55MPpEcUPRfiLz/seZZ77XvJ/9zeZR6bEKp2XsIYobivYTmfc/zjzzveb97G82j909VtIj77DH6jPOPPMDyRcVFmKF2mN1GJK3s0vWVKDfBDXe2fUBzp87V5ckhAyEfYWFuGSxzlh72P/spl2iKyCJ7oByTWxqP1ppEolITU1tiQ60v9lcu0RXQN8jULU5hnceUN8UgBKoqakHqIPd/+yWdwmPFT6rOm/3iFGFd777Hn6j+qYxjzPPPPM95sV/RiVGjMpOeZeSByQRqP1rGTLE/wGiHGCceeaZD5gPtL/ZXRvXClCT1D7aBXU9VkZGRkuipFZ6vvub3bVprQDGHqOszGdlZGQceBR1q+9+5oDYfQUBZYC6Jy2JxrukRGpq6oFpoIf9zb5arBWgtDugRGp/WgYgK70iJVJTUw9MA5Bl+Nnf7K1Fj1XtDTD2EF2iJ6RsLomamnpAWqlY/e9v9o7GHqvqvNQ+2pzUjmpSU1P3T4ub3dF4F1trY49VdVyTZr570HA/RkbG/kdxU9vM46q2Y95vj9UcmQegfm1hZGS0JELsYkHtf/7GQznPHmuw0TRgOMqpi8z7H2eeeb9547Bjov8eqzkyrx3FFOWr6SinLjLvf5x55v3mg93//I2HcN5/j9UUmYd2pog4uunSjnJSU1P3Xwe7//kbD+W8b49V9nVk5vV5cScRdVq5M/PMM9+HvM/+1dv+Z4+8b49VsV+fceYFal6Jmmaeeeb7nJeUMS0GGrdZXvRYTQ7M6CfqB1StflQxzzzz/crrh50UfStWRr/R5YLoDbmUXqtLoqamHpB28qwAGbpPDtn0SUKtaS3KAJRIPbjaHM353rQ5mvPUw6wBIf3sbzbXLtETUD85JKVHQO1fa3+IGXjUg6uVWwHzvemBPp560HXP+5t9tanHqjovtVmL94H4BWpvCohfpEEzzzzzQebV/cx3f7O7NvVYxQun9qfFoCSZtDky73+ceeb95lUNoMf9z17a1d37UByXOoDuaRzMM898n/OBxu2vpc4uWVZMFjK6oTbqDz7chTnz5ulGCCEDoWjvXixdtBjws7/ZXbsgQzgtRKT2r6FqMSC0OTLPPPO+4z3lZTEuq3mHaM4KCFJD1ZAA5U+fyDzzzPuO95SX1HElOkV3dnbJIL3CVgAh1qJvBTgN9liD1B98tBtz587tTkiSKP2pqan7pQsLCpzbY5WUQShTBqgDaFn5tam/PWpq6gHrgPubzbXSY9UlqQNrcZORkdGqKAkhKYNO0cpaAcoHCGPACK1Brf4SqampB6rN+5lToguSeLHi1epu+9vCOQ8A2seTMkBNTT0wrQxBGTJo82ajvDKPVdmgu+1vC+u88nHEjRs3C7dg9z975bt7rIw9RpdLuUaPElVtjsz7H2eeeX95837mlMgea9BRVj6RRFS1OTLvf5x55v3nEWB/s3fUeqySJF63qmHS4Z4nhAwCQe5/dstrPVZZVhKKhkmHe16SxFFM/1EKMM4888z3lA92/7Nbnj3WYCOgCBFVLSLzzDPfr7yk5J0Wu5RTWknP/Oej3ZjLtQIIsYzCvXtxwcI887AjED1WCJdl7CH6DDAyMg44Bhi2exQ9Vph6Bow+UZIg+kKMjIyWRfN+5pQYcFYAtVGbMQ9RU1P3Q0tiM+9vdtemWQGycFxqHy02VXdf44aamnqgWtwUN5yhpS5ZFtcVkMQAo/+4a89HmDdvns84JHRjHmeeeeYD5vcW7MXihQt9xp0Q2WMNNqpCfNQq44pWP3mZZ575PuYhcFg0zmOF4rjo1swreS0pNpGnpqYeiJaUIaGVNPzsfzbLK2sFKD0PdH+SqJp5kYfyO5M0k6Wmph6oDnb/s1temceqvlrdSzaPh3velGZkZBxg1G4Hsf/ZLK/0WLudVqDT5hiueTVw48bNmk3btYLY/2yW1ypWyey8phjueQ31pj6qm3mceeaZ7z0fxP5nt7xLaRIo6yPKatPDJ4Z7XkJ3f8gnqpt5nHnmmQ+cB4Le/+yWd2kvUTL8CqjNGsonEjdu3CzadPuUeX+zuXYBqtNCRGr/GvD5lNKi9pgAkXn/48yHd17sVMpYL/ufzbQkixqW9MJHe/Zg7vx5yieS7BMlSOjpFDbmmWfeOL63YA8WLVho3tUcgcs8QPwjy8qnUoDIvP9x5pnvMe9QaKzBIlFTUw+adhg01iCRIKZUaGtJUlNTD1g7FRprn1DfCYyMjNZF50FjDRpZ6QspGzU19cC1Q6GxBo0kPmDF9xhqamortEOhsfYBCZJ4bzAyMg44QvnTidBYg0V9DzAyMloXHQqNNVhkKP0hRVBTUw9cOxSeeRUkewoKMH/+fPMwIaSfFBQUYIFD9ylWrEEjK5+4ykZNTT1w7VBorEGjP6opUVNTW6EdCo01SMRbQT2qSU1NbYV2KjRWQgixGB68IoQQi2HFSgghFkNjJYQQi6GxEkKIxdBYCSHEYmishBBiMTRWQgixGBorIYRYDI2VEEIsxjHGum3bNmzbtk3T1dXVuO+++9Dc3Gy4H7GW6upqrFy5EsXFxeaUgfvuuw8bNmwwD5NeuO+++5CdnY3s7Gxcf/31fD9bTHNzM+677z5UV1drY8G+p3vCMcZaUlKCzZs3a7q6uhoHDx5EU1OT4X6E2IVt27ahoqICR44cwZEjR7B27Vq43W7z3cgAqaiowGOPPWYeHhCOMtadO3dqnzzvvfcejh07ZvgkIsROlJSUIDc3F263G263GzfffLP5LsQiXnrpJcM33oHiCGNtbm5GQ0MDZs6cieLiYjQ3N6OkpASf+9znNGPdsGGD9pVqwoQJKC4u9lvy8ytr/9m2bRsWLlyo/c7NmvSNZcuWYfPmzX7fj/r3s/o7bm5uxvXXX6+NZ2dn47777jM/lPjh5z//OX7xi1/4/frv73e9YcMGQ2umuLgYK1eu1N7rjjDWpqYmNDQ04Atf+AJOnTqlff1fsGABSkpKAAD33HMPKisrUVlZiW9961t46KGHkJCQgHXr1uGZZ54BdO2DZcuWGZ6fkOFg9uzZ+Mc//oFf/epXyM7O1iqqDRs2oKSkRHs/P/bYY7j77rvR0tICANi4cSMqKytRWFiInTt3+jVmYiQrKwv3338/HnroIe33CKU4ePbZZ1FYWIjKykqsX78ed999N6688krU19ejtLQUAPDMM89g3bp1yMjIAJxirOqnzMSJE1FQUICdO3di8uTJmDBhAvbs2YPm5mZUV1dj4cKFyM7Oxs9+9jPtsTfccAMqKipQXV2N4uJizJgxA7Nnz9Y9OyHDx+zZs1FaWoqNGzfizjvvxO7du/H222/jpZde0qqoW265BcePH/c5npCRkYH169drxQXpmVWrViE3NxdPP/20NrZ582YsWbJEM8xly5ahvr4e8fHxWlFWXV2NiooK3HDDDdrjHGGsai9q/PjxSEhIwI4dO7Bs2TJkZGSgoaEBNTU1uPvuu7F+/XpUVlZi48aN2mMzMjKwYsUKFBcXY/Pmzbj66qsNz01IKLBkyRLMmTMHNTU1AIAHH3xQq1grKyvx0UcfIT093fww0kcee+wxfPLJJzh27Jg55YNalD3xxBNYsWKFZr5wkrFOnjwZAHDxxRejoqICEyZMQEJCApKSklBeXo76+nrtK/7mzZsNn/DLli3DCy+8gIqKClarQaDvnao9pYyMDGRkZECWZW3MXCmZNemZ4uJibNq0CQBQWlqK8vJyjB07FitWrMCzzz7ba++6uroazz77LIuFPuB2u/GTn/wEI0aMAABcffXVhoPizzzzDJKTk5GQkICMjAzk5uZi69athmoVTjDW5uZmVFRUaMY6e/Zs5OXladNSGhoa4PF4sG7dOqxevRrZ2dna1VbVFsKECRPQ0NDg86lD/LNq1SosWbIEc+fOxerVq3H//fcjIyMDs2fPxtKlS7Xf8yuvvKI95tZbb8XmzZt5MKUPvPfee/j+97+P7OxsrF69Go8//jhmz56Ne+65B+vXr8fcuXO1doD+iPYtt9yC7OxszJ07F+vXr8eqVasMz0t6Zvbs2fj6178OKO91/e96586d+N///V/NX2699Vbce++9Pr7BKwgon+xf/OIX8atf/YoVK7Etzc3NuPnmm3HnnXfSTIcZ21esA2XDhg2YO3cu7r//fpoqIcQSWLESQojFhH3FSgghVkNjJYQQi6GxEkKIxdBYCSHEYmishBBiMTRWQgixGBorIYRYjNTW3sl5rIQQYiGsWAkhxGJorIQQYjE0VkIIsRgaKyGEWAyNlRBCLIbGSgghFkNjJYQQi6GxEkKIxdBYCSHEYmishBBiMTRWQgixGBorIYRYDI2VEEIshsZKCCEWQ2MlhBCLobESQojF0FgJIcRiaKyEEGIx/x/ocLNpzGkKBwAAAABJRU5ErkJggg==;imageBorder=default;" vertex="1" parent="1">
          <mxGeometry x="300" y="-30" width="342" height="463" as="geometry" />
        </mxCell>
        <UserObject label="Delta ToolTip" link="http://localhost:5173/src/combined-examples/delta-brushable/" id="6KI_SHGeWWou5IIrmmP3-5">
          <mxCell style="rounded=0;whiteSpace=wrap;html=1;" vertex="1" parent="1">
            <mxGeometry x="550" y="-130" width="120" height="60" as="geometry" />
          </mxCell>
        </UserObject>
        <mxCell id="6KI_SHGeWWou5IIrmmP3-6" value="Marcador" style="shape=callout;whiteSpace=wrap;html=1;perimeter=calloutPerimeter;fillColor=#f8cecc;strokeColor=#b85450;" vertex="1" parent="1">
          <mxGeometry x="540" y="40" width="90" height="60" as="geometry" />
        </mxCell>
        <mxCell id="6KI_SHGeWWou5IIrmmP3-7" value="Marcador" style="shape=callout;whiteSpace=wrap;html=1;perimeter=calloutPerimeter;fillColor=#d5e8d4;strokeColor=#82b366;" vertex="1" parent="1">
          <mxGeometry x="330" y="220" width="90" height="60" as="geometry" />
        </mxCell>
        <mxCell id="6KI_SHGeWWou5IIrmmP3-8" value="Panel Positions" style="swimlane;whiteSpace=wrap;html=1;" vertex="1" parent="1">
          <mxGeometry x="1240" y="40" width="380" height="470" as="geometry" />
        </mxCell>
        <mxCell id="6KI_SHGeWWou5IIrmmP3-9" value="PNL TOTAL: FLOAT" style="rounded=0;whiteSpace=wrap;html=1;" vertex="1" parent="6KI_SHGeWWou5IIrmmP3-8">
          <mxGeometry x="35" y="50" width="315" height="120" as="geometry" />
        </mxCell>
        <mxCell id="6KI_SHGeWWou5IIrmmP3-11" value="" style="shape=table;startSize=0;container=1;collapsible=0;childLayout=tableLayout;fontSize=16;" vertex="1" parent="6KI_SHGeWWou5IIrmmP3-8">
          <mxGeometry x="92.5" y="230" width="200" height="120" as="geometry" />
        </mxCell>
        <mxCell id="6KI_SHGeWWou5IIrmmP3-12" value="" style="shape=tableRow;horizontal=0;startSize=0;swimlaneHead=0;swimlaneBody=0;strokeColor=inherit;top=0;left=0;bottom=0;right=0;collapsible=0;dropTarget=0;fillColor=none;points=[[0,0.5],[1,0.5]];portConstraint=eastwest;fontSize=16;" vertex="1" parent="6KI_SHGeWWou5IIrmmP3-11">
          <mxGeometry width="200" height="40" as="geometry" />
        </mxCell>
        <mxCell id="6KI_SHGeWWou5IIrmmP3-13" value="Wallet" style="shape=partialRectangle;html=1;whiteSpace=wrap;connectable=0;strokeColor=inherit;overflow=hidden;fillColor=none;top=0;left=0;bottom=0;right=0;pointerEvents=1;fontSize=16;" vertex="1" parent="6KI_SHGeWWou5IIrmmP3-12">
          <mxGeometry width="100" height="40" as="geometry">
            <mxRectangle width="100" height="40" as="alternateBounds" />
          </mxGeometry>
        </mxCell>
        <mxCell id="6KI_SHGeWWou5IIrmmP3-14" value="PNL" style="shape=partialRectangle;html=1;whiteSpace=wrap;connectable=0;strokeColor=inherit;overflow=hidden;fillColor=none;top=0;left=0;bottom=0;right=0;pointerEvents=1;fontSize=16;" vertex="1" parent="6KI_SHGeWWou5IIrmmP3-12">
          <mxGeometry x="100" width="100" height="40" as="geometry">
            <mxRectangle width="100" height="40" as="alternateBounds" />
          </mxGeometry>
        </mxCell>
        <mxCell id="6KI_SHGeWWou5IIrmmP3-16" value="" style="shape=tableRow;horizontal=0;startSize=0;swimlaneHead=0;swimlaneBody=0;strokeColor=inherit;top=0;left=0;bottom=0;right=0;collapsible=0;dropTarget=0;fillColor=none;points=[[0,0.5],[1,0.5]];portConstraint=eastwest;fontSize=16;" vertex="1" parent="6KI_SHGeWWou5IIrmmP3-11">
          <mxGeometry y="40" width="200" height="40" as="geometry" />
        </mxCell>
        <mxCell id="6KI_SHGeWWou5IIrmmP3-17" value="USDT-M" style="shape=partialRectangle;html=1;whiteSpace=wrap;connectable=0;strokeColor=inherit;overflow=hidden;fillColor=none;top=0;left=0;bottom=0;right=0;pointerEvents=1;fontSize=16;" vertex="1" parent="6KI_SHGeWWou5IIrmmP3-16">
          <mxGeometry width="100" height="40" as="geometry">
            <mxRectangle width="100" height="40" as="alternateBounds" />
          </mxGeometry>
        </mxCell>
        <mxCell id="6KI_SHGeWWou5IIrmmP3-18" value="" style="shape=partialRectangle;html=1;whiteSpace=wrap;connectable=0;strokeColor=inherit;overflow=hidden;fillColor=none;top=0;left=0;bottom=0;right=0;pointerEvents=1;fontSize=16;" vertex="1" parent="6KI_SHGeWWou5IIrmmP3-16">
          <mxGeometry x="100" width="100" height="40" as="geometry">
            <mxRectangle width="100" height="40" as="alternateBounds" />
          </mxGeometry>
        </mxCell>
        <mxCell id="6KI_SHGeWWou5IIrmmP3-20" value="" style="shape=tableRow;horizontal=0;startSize=0;swimlaneHead=0;swimlaneBody=0;strokeColor=inherit;top=0;left=0;bottom=0;right=0;collapsible=0;dropTarget=0;fillColor=none;points=[[0,0.5],[1,0.5]];portConstraint=eastwest;fontSize=16;" vertex="1" parent="6KI_SHGeWWou5IIrmmP3-11">
          <mxGeometry y="80" width="200" height="40" as="geometry" />
        </mxCell>
        <mxCell id="6KI_SHGeWWou5IIrmmP3-21" value="USDT-COIN" style="shape=partialRectangle;html=1;whiteSpace=wrap;connectable=0;strokeColor=inherit;overflow=hidden;fillColor=none;top=0;left=0;bottom=0;right=0;pointerEvents=1;fontSize=16;" vertex="1" parent="6KI_SHGeWWou5IIrmmP3-20">
          <mxGeometry width="100" height="40" as="geometry">
            <mxRectangle width="100" height="40" as="alternateBounds" />
          </mxGeometry>
        </mxCell>
        <mxCell id="6KI_SHGeWWou5IIrmmP3-22" value="" style="shape=partialRectangle;html=1;whiteSpace=wrap;connectable=0;strokeColor=inherit;overflow=hidden;fillColor=none;top=0;left=0;bottom=0;right=0;pointerEvents=1;fontSize=16;" vertex="1" parent="6KI_SHGeWWou5IIrmmP3-20">
          <mxGeometry x="100" width="100" height="40" as="geometry">
            <mxRectangle width="100" height="40" as="alternateBounds" />
          </mxGeometry>
        </mxCell>
        <mxCell id="6KI_SHGeWWou5IIrmmP3-27" value="Position Cards" style="swimlane;whiteSpace=wrap;html=1;" vertex="1" parent="1">
          <mxGeometry x="40" y="580" width="1160" height="750" as="geometry" />
        </mxCell>
        <mxCell id="6KI_SHGeWWou5IIrmmP3-28" value="COINM" style="swimlane;whiteSpace=wrap;html=1;" vertex="1" parent="6KI_SHGeWWou5IIrmmP3-27">
          <mxGeometry x="40" y="50" width="410" height="680" as="geometry" />
        </mxCell>
        <mxCell id="6KI_SHGeWWou5IIrmmP3-54" value="Symbol" style="swimlane;whiteSpace=wrap;html=1;" vertex="1" parent="6KI_SHGeWWou5IIrmmP3-28">
          <mxGeometry x="40" y="30" width="320" height="210" as="geometry" />
        </mxCell>
        <mxCell id="6KI_SHGeWWou5IIrmmP3-37" value="Avaible Amount" style="rounded=0;whiteSpace=wrap;html=1;" vertex="1" parent="6KI_SHGeWWou5IIrmmP3-54">
          <mxGeometry x="30" y="40" width="120" height="30" as="geometry" />
        </mxCell>
        <mxCell id="6KI_SHGeWWou5IIrmmP3-38" value="Unrealized Profit" style="rounded=0;whiteSpace=wrap;html=1;" vertex="1" parent="6KI_SHGeWWou5IIrmmP3-54">
          <mxGeometry x="30" y="80" width="120" height="30" as="geometry" />
        </mxCell>
        <mxCell id="6KI_SHGeWWou5IIrmmP3-39" value="Initial Margin" style="rounded=0;whiteSpace=wrap;html=1;" vertex="1" parent="6KI_SHGeWWou5IIrmmP3-54">
          <mxGeometry x="170" y="40" width="120" height="30" as="geometry" />
        </mxCell>
        <mxCell id="6KI_SHGeWWou5IIrmmP3-40" value="Liquidation Price" style="rounded=0;whiteSpace=wrap;html=1;" vertex="1" parent="6KI_SHGeWWou5IIrmmP3-54">
          <mxGeometry x="170" y="80" width="120" height="30" as="geometry" />
        </mxCell>
        <mxCell id="6KI_SHGeWWou5IIrmmP3-41" value="Average price" style="rounded=0;whiteSpace=wrap;html=1;" vertex="1" parent="6KI_SHGeWWou5IIrmmP3-54">
          <mxGeometry x="30" y="120" width="120" height="30" as="geometry" />
        </mxCell>
        <mxCell id="6KI_SHGeWWou5IIrmmP3-42" value="Leverage" style="rounded=0;whiteSpace=wrap;html=1;" vertex="1" parent="6KI_SHGeWWou5IIrmmP3-54">
          <mxGeometry x="170" y="120" width="120" height="30" as="geometry" />
        </mxCell>
        <mxCell id="6KI_SHGeWWou5IIrmmP3-43" value="Mark price" style="rounded=0;whiteSpace=wrap;html=1;" vertex="1" parent="6KI_SHGeWWou5IIrmmP3-54">
          <mxGeometry x="30" y="160" width="120" height="30" as="geometry" />
        </mxCell>
        <mxCell id="6KI_SHGeWWou5IIrmmP3-53" value="Update Time" style="rounded=0;whiteSpace=wrap;html=1;" vertex="1" parent="6KI_SHGeWWou5IIrmmP3-54">
          <mxGeometry x="170" y="160" width="120" height="30" as="geometry" />
        </mxCell>
        <mxCell id="6KI_SHGeWWou5IIrmmP3-55" value="Symbol" style="swimlane;whiteSpace=wrap;html=1;" vertex="1" parent="6KI_SHGeWWou5IIrmmP3-28">
          <mxGeometry x="40" y="260" width="320" height="210" as="geometry" />
        </mxCell>
        <mxCell id="6KI_SHGeWWou5IIrmmP3-56" value="Avaible Amount" style="rounded=0;whiteSpace=wrap;html=1;" vertex="1" parent="6KI_SHGeWWou5IIrmmP3-55">
          <mxGeometry x="30" y="40" width="120" height="30" as="geometry" />
        </mxCell>
        <mxCell id="6KI_SHGeWWou5IIrmmP3-57" value="Unrealized Profit" style="rounded=0;whiteSpace=wrap;html=1;" vertex="1" parent="6KI_SHGeWWou5IIrmmP3-55">
          <mxGeometry x="30" y="80" width="120" height="30" as="geometry" />
        </mxCell>
        <mxCell id="6KI_SHGeWWou5IIrmmP3-58" value="Initial Margin" style="rounded=0;whiteSpace=wrap;html=1;" vertex="1" parent="6KI_SHGeWWou5IIrmmP3-55">
          <mxGeometry x="170" y="40" width="120" height="30" as="geometry" />
        </mxCell>
        <mxCell id="6KI_SHGeWWou5IIrmmP3-59" value="Liquidation Price" style="rounded=0;whiteSpace=wrap;html=1;" vertex="1" parent="6KI_SHGeWWou5IIrmmP3-55">
          <mxGeometry x="170" y="80" width="120" height="30" as="geometry" />
        </mxCell>
        <mxCell id="6KI_SHGeWWou5IIrmmP3-60" value="Average price" style="rounded=0;whiteSpace=wrap;html=1;" vertex="1" parent="6KI_SHGeWWou5IIrmmP3-55">
          <mxGeometry x="30" y="120" width="120" height="30" as="geometry" />
        </mxCell>
        <mxCell id="6KI_SHGeWWou5IIrmmP3-61" value="Leverage" style="rounded=0;whiteSpace=wrap;html=1;" vertex="1" parent="6KI_SHGeWWou5IIrmmP3-55">
          <mxGeometry x="170" y="120" width="120" height="30" as="geometry" />
        </mxCell>
        <mxCell id="6KI_SHGeWWou5IIrmmP3-62" value="Mark price" style="rounded=0;whiteSpace=wrap;html=1;" vertex="1" parent="6KI_SHGeWWou5IIrmmP3-55">
          <mxGeometry x="30" y="160" width="120" height="30" as="geometry" />
        </mxCell>
        <mxCell id="6KI_SHGeWWou5IIrmmP3-63" value="Update Time" style="rounded=0;whiteSpace=wrap;html=1;" vertex="1" parent="6KI_SHGeWWou5IIrmmP3-55">
          <mxGeometry x="170" y="160" width="120" height="30" as="geometry" />
        </mxCell>
        <mxCell id="6KI_SHGeWWou5IIrmmP3-32" value="USDTM" style="swimlane;whiteSpace=wrap;html=1;" vertex="1" parent="6KI_SHGeWWou5IIrmmP3-27">
          <mxGeometry x="720" y="45" width="410" height="695" as="geometry" />
        </mxCell>
        <mxCell id="6KI_SHGeWWou5IIrmmP3-65" value="Symbol" style="swimlane;whiteSpace=wrap;html=1;" vertex="1" parent="6KI_SHGeWWou5IIrmmP3-32">
          <mxGeometry x="45" y="35" width="320" height="325" as="geometry" />
        </mxCell>
        <mxCell id="6KI_SHGeWWou5IIrmmP3-66" value="Avaible Amount" style="rounded=0;whiteSpace=wrap;html=1;" vertex="1" parent="6KI_SHGeWWou5IIrmmP3-65">
          <mxGeometry x="170" y="80" width="120" height="30" as="geometry" />
        </mxCell>
        <mxCell id="6KI_SHGeWWou5IIrmmP3-68" value="Initial Margin" style="rounded=0;whiteSpace=wrap;html=1;" vertex="1" parent="6KI_SHGeWWou5IIrmmP3-65">
          <mxGeometry x="95" y="281" width="120" height="30" as="geometry" />
        </mxCell>
        <mxCell id="6KI_SHGeWWou5IIrmmP3-69" value="Liquidation Price" style="rounded=0;whiteSpace=wrap;html=1;" vertex="1" parent="6KI_SHGeWWou5IIrmmP3-65">
          <mxGeometry x="165" y="243" width="120" height="30" as="geometry" />
        </mxCell>
        <mxCell id="6KI_SHGeWWou5IIrmmP3-70" value="Average price" style="rounded=0;whiteSpace=wrap;html=1;" vertex="1" parent="6KI_SHGeWWou5IIrmmP3-65">
          <mxGeometry x="30" y="120" width="120" height="30" as="geometry" />
        </mxCell>
        <mxCell id="6KI_SHGeWWou5IIrmmP3-71" value="Leverage" style="rounded=0;whiteSpace=wrap;html=1;" vertex="1" parent="6KI_SHGeWWou5IIrmmP3-65">
          <mxGeometry x="30" y="163" width="120" height="30" as="geometry" />
        </mxCell>
        <mxCell id="6KI_SHGeWWou5IIrmmP3-72" value="Mark price" style="rounded=0;whiteSpace=wrap;html=1;" vertex="1" parent="6KI_SHGeWWou5IIrmmP3-65">
          <mxGeometry x="30" y="243" width="120" height="30" as="geometry" />
        </mxCell>
        <mxCell id="6KI_SHGeWWou5IIrmmP3-73" value="Update Time" style="rounded=0;whiteSpace=wrap;html=1;" vertex="1" parent="6KI_SHGeWWou5IIrmmP3-65">
          <mxGeometry x="165" y="122" width="120" height="30" as="geometry" />
        </mxCell>
        <mxCell id="6KI_SHGeWWou5IIrmmP3-74" value="Currency" style="rounded=0;whiteSpace=wrap;html=1;" vertex="1" parent="6KI_SHGeWWou5IIrmmP3-65">
          <mxGeometry x="30" y="40" width="120" height="30" as="geometry" />
        </mxCell>
        <mxCell id="6KI_SHGeWWou5IIrmmP3-75" value="Position Amount" style="rounded=0;whiteSpace=wrap;html=1;" vertex="1" parent="6KI_SHGeWWou5IIrmmP3-65">
          <mxGeometry x="170" y="40" width="120" height="30" as="geometry" />
        </mxCell>
        <mxCell id="6KI_SHGeWWou5IIrmmP3-76" value="Position Side" style="rounded=0;whiteSpace=wrap;html=1;" vertex="1" parent="6KI_SHGeWWou5IIrmmP3-65">
          <mxGeometry x="30" y="80" width="120" height="30" as="geometry" />
        </mxCell>
        <mxCell id="6KI_SHGeWWou5IIrmmP3-77" value="Margin" style="rounded=0;whiteSpace=wrap;html=1;" vertex="1" parent="6KI_SHGeWWou5IIrmmP3-65">
          <mxGeometry x="165" y="163" width="120" height="30" as="geometry" />
        </mxCell>
        <mxCell id="6KI_SHGeWWou5IIrmmP3-78" value="Unrealized Profit" style="rounded=0;whiteSpace=wrap;html=1;" vertex="1" parent="6KI_SHGeWWou5IIrmmP3-65">
          <mxGeometry x="165" y="203" width="120" height="30" as="geometry" />
        </mxCell>
        <mxCell id="6KI_SHGeWWou5IIrmmP3-79" value="Realized Profit" style="rounded=0;whiteSpace=wrap;html=1;" vertex="1" parent="6KI_SHGeWWou5IIrmmP3-65">
          <mxGeometry x="30" y="203" width="120" height="30" as="geometry" />
        </mxCell>
        <mxCell id="6KI_SHGeWWou5IIrmmP3-80" value="Symbol" style="swimlane;whiteSpace=wrap;html=1;" vertex="1" parent="6KI_SHGeWWou5IIrmmP3-32">
          <mxGeometry x="40" y="365" width="320" height="325" as="geometry" />
        </mxCell>
        <mxCell id="6KI_SHGeWWou5IIrmmP3-81" value="Avaible Amount" style="rounded=0;whiteSpace=wrap;html=1;" vertex="1" parent="6KI_SHGeWWou5IIrmmP3-80">
          <mxGeometry x="170" y="80" width="120" height="30" as="geometry" />
        </mxCell>
        <mxCell id="6KI_SHGeWWou5IIrmmP3-82" value="Initial Margin" style="rounded=0;whiteSpace=wrap;html=1;" vertex="1" parent="6KI_SHGeWWou5IIrmmP3-80">
          <mxGeometry x="95" y="281" width="120" height="30" as="geometry" />
        </mxCell>
        <mxCell id="6KI_SHGeWWou5IIrmmP3-83" value="Liquidation Price" style="rounded=0;whiteSpace=wrap;html=1;" vertex="1" parent="6KI_SHGeWWou5IIrmmP3-80">
          <mxGeometry x="165" y="243" width="120" height="30" as="geometry" />
        </mxCell>
        <mxCell id="6KI_SHGeWWou5IIrmmP3-84" value="Average price" style="rounded=0;whiteSpace=wrap;html=1;" vertex="1" parent="6KI_SHGeWWou5IIrmmP3-80">
          <mxGeometry x="30" y="120" width="120" height="30" as="geometry" />
        </mxCell>
        <mxCell id="6KI_SHGeWWou5IIrmmP3-85" value="Leverage" style="rounded=0;whiteSpace=wrap;html=1;" vertex="1" parent="6KI_SHGeWWou5IIrmmP3-80">
          <mxGeometry x="30" y="163" width="120" height="30" as="geometry" />
        </mxCell>
        <mxCell id="6KI_SHGeWWou5IIrmmP3-86" value="Mark price" style="rounded=0;whiteSpace=wrap;html=1;" vertex="1" parent="6KI_SHGeWWou5IIrmmP3-80">
          <mxGeometry x="30" y="243" width="120" height="30" as="geometry" />
        </mxCell>
        <mxCell id="6KI_SHGeWWou5IIrmmP3-87" value="Update Time" style="rounded=0;whiteSpace=wrap;html=1;" vertex="1" parent="6KI_SHGeWWou5IIrmmP3-80">
          <mxGeometry x="165" y="122" width="120" height="30" as="geometry" />
        </mxCell>
        <mxCell id="6KI_SHGeWWou5IIrmmP3-88" value="Currency" style="rounded=0;whiteSpace=wrap;html=1;" vertex="1" parent="6KI_SHGeWWou5IIrmmP3-80">
          <mxGeometry x="30" y="40" width="120" height="30" as="geometry" />
        </mxCell>
        <mxCell id="6KI_SHGeWWou5IIrmmP3-89" value="Position Amount" style="rounded=0;whiteSpace=wrap;html=1;" vertex="1" parent="6KI_SHGeWWou5IIrmmP3-80">
          <mxGeometry x="170" y="40" width="120" height="30" as="geometry" />
        </mxCell>
        <mxCell id="6KI_SHGeWWou5IIrmmP3-90" value="Position Side" style="rounded=0;whiteSpace=wrap;html=1;" vertex="1" parent="6KI_SHGeWWou5IIrmmP3-80">
          <mxGeometry x="30" y="80" width="120" height="30" as="geometry" />
        </mxCell>
        <mxCell id="6KI_SHGeWWou5IIrmmP3-91" value="Margin" style="rounded=0;whiteSpace=wrap;html=1;" vertex="1" parent="6KI_SHGeWWou5IIrmmP3-80">
          <mxGeometry x="165" y="163" width="120" height="30" as="geometry" />
        </mxCell>
        <mxCell id="6KI_SHGeWWou5IIrmmP3-92" value="Unrealized Profit" style="rounded=0;whiteSpace=wrap;html=1;" vertex="1" parent="6KI_SHGeWWou5IIrmmP3-80">
          <mxGeometry x="165" y="203" width="120" height="30" as="geometry" />
        </mxCell>
        <mxCell id="6KI_SHGeWWou5IIrmmP3-93" value="Realized Profit" style="rounded=0;whiteSpace=wrap;html=1;" vertex="1" parent="6KI_SHGeWWou5IIrmmP3-80">
          <mxGeometry x="30" y="203" width="120" height="30" as="geometry" />
        </mxCell>
        <mxCell id="6KI_SHGeWWou5IIrmmP3-36" value="Table Positions" style="swimlane;whiteSpace=wrap;html=1;" vertex="1" parent="1">
          <mxGeometry x="40" y="1350" width="1160" height="210" as="geometry" />
        </mxCell>
        <mxCell id="6KI_SHGeWWou5IIrmmP3-94" value="" style="shape=table;startSize=0;container=1;collapsible=0;childLayout=tableLayout;fontSize=16;" vertex="1" parent="6KI_SHGeWWou5IIrmmP3-36">
          <mxGeometry x="60" y="60" width="1040" height="120" as="geometry" />
        </mxCell>
        <mxCell id="6KI_SHGeWWou5IIrmmP3-95" value="" style="shape=tableRow;horizontal=0;startSize=0;swimlaneHead=0;swimlaneBody=0;strokeColor=inherit;top=0;left=0;bottom=0;right=0;collapsible=0;dropTarget=0;fillColor=none;points=[[0,0.5],[1,0.5]];portConstraint=eastwest;fontSize=16;" vertex="1" parent="6KI_SHGeWWou5IIrmmP3-94">
          <mxGeometry width="1040" height="40" as="geometry" />
        </mxCell>
        <mxCell id="6KI_SHGeWWou5IIrmmP3-96" value="ID" style="shape=partialRectangle;html=1;whiteSpace=wrap;connectable=0;strokeColor=inherit;overflow=hidden;fillColor=none;top=0;left=0;bottom=0;right=0;pointerEvents=1;fontSize=16;" vertex="1" parent="6KI_SHGeWWou5IIrmmP3-95">
          <mxGeometry width="149" height="40" as="geometry">
            <mxRectangle width="149" height="40" as="alternateBounds" />
          </mxGeometry>
        </mxCell>
        <mxCell id="6KI_SHGeWWou5IIrmmP3-97" value="Ticker" style="shape=partialRectangle;html=1;whiteSpace=wrap;connectable=0;strokeColor=inherit;overflow=hidden;fillColor=none;top=0;left=0;bottom=0;right=0;pointerEvents=1;fontSize=16;" vertex="1" parent="6KI_SHGeWWou5IIrmmP3-95">
          <mxGeometry x="149" width="148" height="40" as="geometry">
            <mxRectangle width="148" height="40" as="alternateBounds" />
          </mxGeometry>
        </mxCell>
        <mxCell id="6KI_SHGeWWou5IIrmmP3-98" value="Wallet" style="shape=partialRectangle;html=1;whiteSpace=wrap;connectable=0;strokeColor=inherit;overflow=hidden;fillColor=none;top=0;left=0;bottom=0;right=0;pointerEvents=1;fontSize=16;" vertex="1" parent="6KI_SHGeWWou5IIrmmP3-95">
          <mxGeometry x="297" width="149" height="40" as="geometry">
            <mxRectangle width="149" height="40" as="alternateBounds" />
          </mxGeometry>
        </mxCell>
        <mxCell id="6KI_SHGeWWou5IIrmmP3-107" value="PNL" style="shape=partialRectangle;html=1;whiteSpace=wrap;connectable=0;strokeColor=inherit;overflow=hidden;fillColor=none;top=0;left=0;bottom=0;right=0;pointerEvents=1;fontSize=16;" vertex="1" parent="6KI_SHGeWWou5IIrmmP3-95">
          <mxGeometry x="446" width="148" height="40" as="geometry">
            <mxRectangle width="148" height="40" as="alternateBounds" />
          </mxGeometry>
        </mxCell>
        <mxCell id="6KI_SHGeWWou5IIrmmP3-110" value="SL" style="shape=partialRectangle;html=1;whiteSpace=wrap;connectable=0;strokeColor=inherit;overflow=hidden;fillColor=none;top=0;left=0;bottom=0;right=0;pointerEvents=1;fontSize=16;" vertex="1" parent="6KI_SHGeWWou5IIrmmP3-95">
          <mxGeometry x="594" width="149" height="40" as="geometry">
            <mxRectangle width="149" height="40" as="alternateBounds" />
          </mxGeometry>
        </mxCell>
        <mxCell id="6KI_SHGeWWou5IIrmmP3-113" value="TP" style="shape=partialRectangle;html=1;whiteSpace=wrap;connectable=0;strokeColor=inherit;overflow=hidden;fillColor=none;top=0;left=0;bottom=0;right=0;pointerEvents=1;fontSize=16;" vertex="1" parent="6KI_SHGeWWou5IIrmmP3-95">
          <mxGeometry x="743" width="148" height="40" as="geometry">
            <mxRectangle width="148" height="40" as="alternateBounds" />
          </mxGeometry>
        </mxCell>
        <mxCell id="6KI_SHGeWWou5IIrmmP3-116" value="Liquidation" style="shape=partialRectangle;html=1;whiteSpace=wrap;connectable=0;strokeColor=inherit;overflow=hidden;fillColor=none;top=0;left=0;bottom=0;right=0;pointerEvents=1;fontSize=16;" vertex="1" parent="6KI_SHGeWWou5IIrmmP3-95">
          <mxGeometry x="891" width="149" height="40" as="geometry">
            <mxRectangle width="149" height="40" as="alternateBounds" />
          </mxGeometry>
        </mxCell>
        <mxCell id="6KI_SHGeWWou5IIrmmP3-99" value="" style="shape=tableRow;horizontal=0;startSize=0;swimlaneHead=0;swimlaneBody=0;strokeColor=inherit;top=0;left=0;bottom=0;right=0;collapsible=0;dropTarget=0;fillColor=none;points=[[0,0.5],[1,0.5]];portConstraint=eastwest;fontSize=16;" vertex="1" parent="6KI_SHGeWWou5IIrmmP3-94">
          <mxGeometry y="40" width="1040" height="40" as="geometry" />
        </mxCell>
        <mxCell id="6KI_SHGeWWou5IIrmmP3-100" value="" style="shape=partialRectangle;html=1;whiteSpace=wrap;connectable=0;strokeColor=inherit;overflow=hidden;fillColor=none;top=0;left=0;bottom=0;right=0;pointerEvents=1;fontSize=16;" vertex="1" parent="6KI_SHGeWWou5IIrmmP3-99">
          <mxGeometry width="149" height="40" as="geometry">
            <mxRectangle width="149" height="40" as="alternateBounds" />
          </mxGeometry>
        </mxCell>
        <mxCell id="6KI_SHGeWWou5IIrmmP3-101" value="" style="shape=partialRectangle;html=1;whiteSpace=wrap;connectable=0;strokeColor=inherit;overflow=hidden;fillColor=none;top=0;left=0;bottom=0;right=0;pointerEvents=1;fontSize=16;" vertex="1" parent="6KI_SHGeWWou5IIrmmP3-99">
          <mxGeometry x="149" width="148" height="40" as="geometry">
            <mxRectangle width="148" height="40" as="alternateBounds" />
          </mxGeometry>
        </mxCell>
        <mxCell id="6KI_SHGeWWou5IIrmmP3-102" value="" style="shape=partialRectangle;html=1;whiteSpace=wrap;connectable=0;strokeColor=inherit;overflow=hidden;fillColor=none;top=0;left=0;bottom=0;right=0;pointerEvents=1;fontSize=16;" vertex="1" parent="6KI_SHGeWWou5IIrmmP3-99">
          <mxGeometry x="297" width="149" height="40" as="geometry">
            <mxRectangle width="149" height="40" as="alternateBounds" />
          </mxGeometry>
        </mxCell>
        <mxCell id="6KI_SHGeWWou5IIrmmP3-108" style="shape=partialRectangle;html=1;whiteSpace=wrap;connectable=0;strokeColor=inherit;overflow=hidden;fillColor=none;top=0;left=0;bottom=0;right=0;pointerEvents=1;fontSize=16;" vertex="1" parent="6KI_SHGeWWou5IIrmmP3-99">
          <mxGeometry x="446" width="148" height="40" as="geometry">
            <mxRectangle width="148" height="40" as="alternateBounds" />
          </mxGeometry>
        </mxCell>
        <mxCell id="6KI_SHGeWWou5IIrmmP3-111" style="shape=partialRectangle;html=1;whiteSpace=wrap;connectable=0;strokeColor=inherit;overflow=hidden;fillColor=none;top=0;left=0;bottom=0;right=0;pointerEvents=1;fontSize=16;" vertex="1" parent="6KI_SHGeWWou5IIrmmP3-99">
          <mxGeometry x="594" width="149" height="40" as="geometry">
            <mxRectangle width="149" height="40" as="alternateBounds" />
          </mxGeometry>
        </mxCell>
        <mxCell id="6KI_SHGeWWou5IIrmmP3-114" style="shape=partialRectangle;html=1;whiteSpace=wrap;connectable=0;strokeColor=inherit;overflow=hidden;fillColor=none;top=0;left=0;bottom=0;right=0;pointerEvents=1;fontSize=16;" vertex="1" parent="6KI_SHGeWWou5IIrmmP3-99">
          <mxGeometry x="743" width="148" height="40" as="geometry">
            <mxRectangle width="148" height="40" as="alternateBounds" />
          </mxGeometry>
        </mxCell>
        <mxCell id="6KI_SHGeWWou5IIrmmP3-117" style="shape=partialRectangle;html=1;whiteSpace=wrap;connectable=0;strokeColor=inherit;overflow=hidden;fillColor=none;top=0;left=0;bottom=0;right=0;pointerEvents=1;fontSize=16;" vertex="1" parent="6KI_SHGeWWou5IIrmmP3-99">
          <mxGeometry x="891" width="149" height="40" as="geometry">
            <mxRectangle width="149" height="40" as="alternateBounds" />
          </mxGeometry>
        </mxCell>
        <mxCell id="6KI_SHGeWWou5IIrmmP3-103" value="" style="shape=tableRow;horizontal=0;startSize=0;swimlaneHead=0;swimlaneBody=0;strokeColor=inherit;top=0;left=0;bottom=0;right=0;collapsible=0;dropTarget=0;fillColor=none;points=[[0,0.5],[1,0.5]];portConstraint=eastwest;fontSize=16;" vertex="1" parent="6KI_SHGeWWou5IIrmmP3-94">
          <mxGeometry y="80" width="1040" height="40" as="geometry" />
        </mxCell>
        <mxCell id="6KI_SHGeWWou5IIrmmP3-104" value="" style="shape=partialRectangle;html=1;whiteSpace=wrap;connectable=0;strokeColor=inherit;overflow=hidden;fillColor=none;top=0;left=0;bottom=0;right=0;pointerEvents=1;fontSize=16;" vertex="1" parent="6KI_SHGeWWou5IIrmmP3-103">
          <mxGeometry width="149" height="40" as="geometry">
            <mxRectangle width="149" height="40" as="alternateBounds" />
          </mxGeometry>
        </mxCell>
        <mxCell id="6KI_SHGeWWou5IIrmmP3-105" value="" style="shape=partialRectangle;html=1;whiteSpace=wrap;connectable=0;strokeColor=inherit;overflow=hidden;fillColor=none;top=0;left=0;bottom=0;right=0;pointerEvents=1;fontSize=16;" vertex="1" parent="6KI_SHGeWWou5IIrmmP3-103">
          <mxGeometry x="149" width="148" height="40" as="geometry">
            <mxRectangle width="148" height="40" as="alternateBounds" />
          </mxGeometry>
        </mxCell>
        <mxCell id="6KI_SHGeWWou5IIrmmP3-106" value="" style="shape=partialRectangle;html=1;whiteSpace=wrap;connectable=0;strokeColor=inherit;overflow=hidden;fillColor=none;top=0;left=0;bottom=0;right=0;pointerEvents=1;fontSize=16;" vertex="1" parent="6KI_SHGeWWou5IIrmmP3-103">
          <mxGeometry x="297" width="149" height="40" as="geometry">
            <mxRectangle width="149" height="40" as="alternateBounds" />
          </mxGeometry>
        </mxCell>
        <mxCell id="6KI_SHGeWWou5IIrmmP3-109" style="shape=partialRectangle;html=1;whiteSpace=wrap;connectable=0;strokeColor=inherit;overflow=hidden;fillColor=none;top=0;left=0;bottom=0;right=0;pointerEvents=1;fontSize=16;" vertex="1" parent="6KI_SHGeWWou5IIrmmP3-103">
          <mxGeometry x="446" width="148" height="40" as="geometry">
            <mxRectangle width="148" height="40" as="alternateBounds" />
          </mxGeometry>
        </mxCell>
        <mxCell id="6KI_SHGeWWou5IIrmmP3-112" style="shape=partialRectangle;html=1;whiteSpace=wrap;connectable=0;strokeColor=inherit;overflow=hidden;fillColor=none;top=0;left=0;bottom=0;right=0;pointerEvents=1;fontSize=16;" vertex="1" parent="6KI_SHGeWWou5IIrmmP3-103">
          <mxGeometry x="594" width="149" height="40" as="geometry">
            <mxRectangle width="149" height="40" as="alternateBounds" />
          </mxGeometry>
        </mxCell>
        <mxCell id="6KI_SHGeWWou5IIrmmP3-115" style="shape=partialRectangle;html=1;whiteSpace=wrap;connectable=0;strokeColor=inherit;overflow=hidden;fillColor=none;top=0;left=0;bottom=0;right=0;pointerEvents=1;fontSize=16;" vertex="1" parent="6KI_SHGeWWou5IIrmmP3-103">
          <mxGeometry x="743" width="148" height="40" as="geometry">
            <mxRectangle width="148" height="40" as="alternateBounds" />
          </mxGeometry>
        </mxCell>
        <mxCell id="6KI_SHGeWWou5IIrmmP3-118" style="shape=partialRectangle;html=1;whiteSpace=wrap;connectable=0;strokeColor=inherit;overflow=hidden;fillColor=none;top=0;left=0;bottom=0;right=0;pointerEvents=1;fontSize=16;" vertex="1" parent="6KI_SHGeWWou5IIrmmP3-103">
          <mxGeometry x="891" width="149" height="40" as="geometry">
            <mxRectangle width="149" height="40" as="alternateBounds" />
          </mxGeometry>
        </mxCell>
      </root>
    </mxGraphModel>
  </diagram>
</mxfile>
